<svg xmlns="http://www.w3.org/2000/svg" xmlns:xlink="http://www.w3.org/1999/xlink" width="125" zoomAndPan="magnify" viewBox="0 0 93.75 93.749997" height="125" preserveAspectRatio="xMidYMid meet" version="1.0"><defs><clipPath id="2bb0094494"><path d="M 0 0 L 93.5 0 L 93.5 93.5 L 0 93.5 Z M 0 0 " clip-rule="nonzero"/></clipPath></defs><path fill="#ffffff" d="M 16.800781 21.578125 C 14.492188 21.578125 12.601562 23.46875 12.601562 25.777344 L 12.601562 67.777344 C 12.601562 70.085938 14.492188 71.976562 16.800781 71.976562 L 35.699219 71.976562 C 38.007812 71.976562 39.898438 70.085938 39.898438 67.777344 L 39.898438 25.777344 C 39.898438 23.46875 38.007812 21.578125 35.699219 21.578125 Z M 16.800781 23.675781 L 23.101562 23.675781 C 23.101562 24.257812 23.570312 24.726562 24.148438 24.726562 L 28.351562 24.726562 C 28.929688 24.726562 29.398438 24.257812 29.398438 23.675781 L 35.699219 23.675781 C 36.871094 23.675781 37.800781 24.605469 37.800781 25.777344 L 37.800781 67.777344 C 37.800781 68.949219 36.871094 69.878906 35.699219 69.878906 L 16.800781 69.878906 C 15.628906 69.878906 14.699219 68.949219 14.699219 67.777344 L 14.699219 25.777344 C 14.699219 24.605469 15.628906 23.675781 16.800781 23.675781 Z M 16.800781 23.675781 " fill-opacity="1" fill-rule="nonzero"/><path fill="#ffffff" d="M 65.597656 28.164062 C 55.539062 28.164062 47.328125 35.941406 47.328125 45.5625 C 47.085938 45.558594 46.875 45.644531 46.703125 45.8125 C 46.53125 45.984375 46.445312 46.191406 46.445312 46.433594 C 46.445312 46.675781 46.53125 46.882812 46.703125 47.054688 C 46.875 47.222656 47.085938 47.308594 47.328125 47.304688 L 49.066406 47.304688 C 49.308594 47.308594 49.519531 47.222656 49.691406 47.054688 C 49.863281 46.882812 49.949219 46.675781 49.949219 46.433594 C 49.949219 46.191406 49.863281 45.984375 49.691406 45.8125 C 49.519531 45.644531 49.308594 45.558594 49.066406 45.5625 C 49.066406 45.261719 49.097656 44.964844 49.113281 44.667969 C 49.238281 44.710938 49.363281 44.726562 49.496094 44.714844 C 49.625 44.703125 49.746094 44.664062 49.855469 44.59375 C 49.96875 44.527344 50.0625 44.441406 50.132812 44.332031 C 50.207031 44.222656 50.25 44.105469 50.269531 43.976562 C 50.558594 42.351562 51.871094 39.628906 54.355469 37.402344 C 56.835938 35.171875 60.464844 33.382812 65.507812 33.382812 C 70.554688 33.382812 74.179688 35.171875 76.664062 37.402344 C 79.148438 39.628906 80.460938 42.351562 80.746094 43.976562 C 80.769531 44.121094 80.824219 44.253906 80.910156 44.371094 C 81 44.488281 81.109375 44.578125 81.246094 44.640625 C 81.378906 44.703125 81.519531 44.726562 81.667969 44.71875 C 81.8125 44.707031 81.949219 44.664062 82.074219 44.585938 C 82.097656 44.910156 82.128906 45.234375 82.128906 45.5625 C 81.882812 45.558594 81.675781 45.644531 81.503906 45.8125 C 81.332031 45.984375 81.246094 46.191406 81.246094 46.433594 C 81.246094 46.675781 81.332031 46.882812 81.503906 47.054688 C 81.675781 47.222656 81.882812 47.308594 82.128906 47.304688 L 83.867188 47.304688 C 84.109375 47.308594 84.316406 47.222656 84.492188 47.054688 C 84.664062 46.882812 84.75 46.675781 84.75 46.433594 C 84.75 46.191406 84.664062 45.984375 84.492188 45.8125 C 84.316406 45.644531 84.109375 45.558594 83.867188 45.5625 C 83.867188 35.941406 75.652344 28.164062 65.597656 28.164062 Z M 65.597656 29.902344 C 72.683594 29.902344 78.679688 34.113281 81.039062 40.015625 C 80.273438 38.703125 79.210938 37.347656 77.828125 36.105469 C 75.054688 33.621094 70.96875 31.644531 65.507812 31.644531 C 60.046875 31.644531 55.960938 33.621094 53.191406 36.105469 C 52.101562 37.082031 51.21875 38.128906 50.515625 39.171875 C 53.089844 33.71875 58.851562 29.902344 65.597656 29.902344 Z M 47.328125 49.042969 L 47.328125 51.484375 L 47.382812 51.484375 C 46.863281 51.976562 46.457031 52.785156 46.457031 53.890625 C 46.457031 54.785156 46.707031 56.070312 47.113281 57.660156 C 47.519531 59.246094 48.09375 61.082031 48.773438 62.839844 C 49.453125 64.59375 50.234375 66.269531 51.101562 67.5625 C 51.96875 68.855469 52.921875 69.921875 54.289062 69.921875 C 55.398438 69.921875 56.199219 69.234375 56.605469 68.527344 C 56.644531 68.460938 56.660156 68.40625 56.691406 68.34375 C 57.046875 68.453125 57.445312 68.503906 57.875 68.503906 C 58.386719 68.503906 58.890625 68.359375 59.277344 68.058594 C 59.664062 67.757812 59.910156 67.339844 60.042969 66.90625 C 60.316406 66.046875 60.25 65.089844 60.074219 64.042969 C 59.726562 61.953125 58.835938 59.5 58.117188 57.597656 C 57.398438 55.691406 56.753906 53.894531 55.980469 52.492188 C 55.59375 51.789062 55.179688 51.179688 54.652344 50.710938 C 54.125 50.238281 53.445312 49.914062 52.703125 49.914062 C 51.761719 49.914062 50.910156 50.320312 50.4375 51.007812 C 50.417969 51.035156 50.410156 51.070312 50.390625 51.097656 C 50.066406 50.941406 49.632812 50.785156 49.066406 50.785156 L 49.066406 49.042969 Z M 82.128906 49.042969 L 82.128906 50.785156 C 81.5625 50.785156 81.125 50.941406 80.804688 51.097656 C 80.785156 51.070312 80.777344 51.035156 80.757812 51.007812 C 80.285156 50.320312 79.433594 49.914062 78.492188 49.914062 C 77.75 49.914062 77.070312 50.238281 76.542969 50.710938 C 76.015625 51.179688 75.597656 51.789062 75.214844 52.492188 C 74.441406 53.894531 73.796875 55.691406 73.074219 57.597656 C 72.355469 59.5 71.46875 61.953125 71.121094 64.042969 C 70.945312 65.089844 70.878906 66.046875 71.148438 66.90625 C 71.285156 67.339844 71.527344 67.757812 71.917969 68.058594 C 72.304688 68.359375 72.808594 68.503906 73.320312 68.503906 C 73.746094 68.503906 74.144531 68.453125 74.503906 68.34375 C 74.53125 68.40625 74.550781 68.460938 74.589844 68.527344 C 74.996094 69.234375 75.796875 69.921875 76.90625 69.921875 C 78.273438 69.921875 79.226562 68.855469 80.09375 67.5625 C 80.960938 66.269531 81.742188 64.59375 82.421875 62.839844 C 83.101562 61.082031 83.675781 59.246094 84.082031 57.660156 C 84.488281 56.070312 84.738281 54.785156 84.738281 53.890625 C 84.738281 52.785156 84.332031 51.976562 83.8125 51.484375 L 83.867188 51.484375 L 83.867188 49.042969 Z M 52.703125 51.652344 C 52.972656 51.652344 53.191406 51.738281 53.492188 52.007812 C 53.789062 52.273438 54.125 52.730469 54.457031 53.332031 C 55.121094 54.53125 55.765625 56.292969 56.492188 58.214844 C 57.199219 60.089844 58.054688 62.503906 58.359375 64.332031 C 58.511719 65.246094 58.5 66.011719 58.382812 66.382812 C 58.324219 66.570312 58.265625 66.644531 58.210938 66.683594 C 58.160156 66.722656 58.089844 66.765625 57.875 66.765625 C 57.25 66.765625 57.082031 66.679688 56.921875 66.539062 C 56.765625 66.398438 56.554688 66.042969 56.261719 65.398438 C 55.707031 64.171875 54.722656 61.402344 53.894531 59.175781 C 53.484375 58.070312 53 56.738281 52.589844 55.570312 C 52.183594 54.40625 51.847656 53.363281 51.765625 53.019531 L 51.765625 53.015625 C 51.65625 52.539062 51.738281 52.191406 51.871094 51.992188 C 52.007812 51.796875 52.203125 51.652344 52.703125 51.652344 Z M 78.492188 51.652344 C 78.992188 51.652344 79.1875 51.796875 79.320312 51.992188 C 79.457031 52.191406 79.539062 52.539062 79.425781 53.019531 C 79.347656 53.363281 79.011719 54.40625 78.601562 55.570312 C 78.195312 56.738281 77.710938 58.070312 77.300781 59.175781 C 76.472656 61.402344 75.488281 64.171875 74.933594 65.398438 C 74.640625 66.042969 74.429688 66.398438 74.273438 66.539062 C 74.113281 66.679688 73.945312 66.765625 73.320312 66.765625 C 73.105469 66.765625 73.035156 66.722656 72.980469 66.683594 C 72.929688 66.644531 72.867188 66.570312 72.808594 66.382812 C 72.691406 66.011719 72.683594 65.246094 72.835938 64.332031 C 73.140625 62.503906 73.996094 60.089844 74.703125 58.214844 C 75.429688 56.292969 76.074219 54.53125 76.738281 53.332031 C 77.070312 52.730469 77.40625 52.273438 77.703125 52.007812 C 78.003906 51.738281 78.222656 51.652344 78.492188 51.652344 Z M 49.066406 52.523438 C 49.410156 52.523438 49.539062 52.589844 49.726562 52.695312 C 49.796875 52.734375 49.894531 52.800781 49.992188 52.863281 C 50.007812 53.042969 50.03125 53.226562 50.070312 53.40625 C 50.070312 53.40625 50.070312 53.410156 50.070312 53.410156 C 50.203125 53.988281 50.535156 54.964844 50.949219 56.148438 C 51.363281 57.328125 51.847656 58.667969 52.261719 59.78125 C 53.085938 61.988281 54.039062 64.707031 54.675781 66.113281 C 54.863281 66.523438 55.039062 66.894531 55.257812 67.230469 C 55.25 67.257812 55.234375 67.292969 55.226562 67.316406 C 55.171875 67.492188 55.136719 67.589844 55.097656 67.660156 C 54.960938 67.898438 54.613281 68.183594 54.289062 68.183594 C 54.019531 68.183594 53.289062 67.707031 52.546875 66.59375 C 51.800781 65.480469 51.046875 63.890625 50.394531 62.210938 C 49.742188 60.527344 49.1875 58.746094 48.800781 57.226562 C 48.410156 55.707031 48.199219 54.402344 48.199219 53.890625 C 48.199219 53.054688 48.425781 52.828125 48.617188 52.6875 C 48.804688 52.546875 49.101562 52.523438 49.066406 52.523438 Z M 82.128906 52.523438 C 82.089844 52.523438 82.386719 52.546875 82.578125 52.6875 C 82.765625 52.828125 82.996094 53.054688 82.996094 53.890625 C 82.996094 54.402344 82.785156 55.707031 82.394531 57.226562 C 82.007812 58.746094 81.453125 60.527344 80.800781 62.210938 C 80.148438 63.890625 79.394531 65.480469 78.648438 66.59375 C 77.902344 67.707031 77.171875 68.183594 76.90625 68.183594 C 76.582031 68.183594 76.234375 67.898438 76.097656 67.660156 C 76.054688 67.589844 76.023438 67.492188 75.96875 67.316406 C 75.960938 67.292969 75.945312 67.257812 75.933594 67.230469 C 76.15625 66.894531 76.332031 66.523438 76.519531 66.113281 C 77.152344 64.707031 78.109375 61.988281 78.929688 59.78125 C 79.34375 58.667969 79.832031 57.328125 80.246094 56.148438 C 80.660156 54.964844 80.988281 53.988281 81.125 53.410156 C 81.125 53.410156 81.125 53.40625 81.125 53.40625 C 81.164062 53.226562 81.1875 53.042969 81.203125 52.863281 C 81.300781 52.800781 81.398438 52.734375 81.464844 52.695312 C 81.65625 52.589844 81.785156 52.523438 82.128906 52.523438 Z M 82.128906 52.523438 " fill-opacity="1" fill-rule="nonzero"/></svg>
