<svg fill="#ffffff" xmlns="http://www.w3.org/2000/svg"  viewBox="0 0 80 80" width="80px" height="80px"><path d="M 32 12 C 19.861562 12 10 21.861562 10 34 L 10 35 L 10.416016 35 C 10.451027 35.087386 10.506403 35.161704 10.546875 35.246094 C 8.9471931 35.566026 7.5895664 36.175983 6.5371094 36.941406 C 4.9814188 38.072818 4 39.5 4 41 C 4 42.166667 4.2983145 43.060037 4.6171875 43.660156 C 4.9283436 44.245752 5.3015696 44.591905 5.3203125 44.609375 C 5.8269427 45.104338 6.4202842 45.456399 7.0488281 45.685547 A 1.0001 1.0001 0 0 0 7 46 C 7 47.638502 7.8093582 49.086591 9.0371094 50 C 7.8093582 50.913409 7 52.361498 7 54 L 7 55 L 7.203125 55 C 7.538355 56.578244 8.5865461 57.889478 10 58.544922 L 10 61 C 10 64.854334 13.145666 68 17 68 L 63 68 C 66.854334 68 70 64.854334 70 61 L 70 58.544922 C 71.413454 57.889478 72.461645 56.578244 72.796875 55 L 73 55 L 73 54 C 73 52.361498 72.190642 50.913409 70.962891 50 C 72.190642 49.086591 73 47.638502 73 46 A 1.0001 1.0001 0 0 0 72.953125 45.685547 C 73.580705 45.456362 74.171649 45.1038 74.677734 44.609375 C 74.696464 44.591925 75.07165 44.245766 75.382812 43.660156 C 75.701685 43.060037 75.998047 42.166667 75.998047 41 C 75.998047 39.5 75.038109 38.100799 73.623047 36.96875 C 72.536663 36.099644 71.127058 35.408794 69.513672 35.132812 C 69.53414 35.086524 69.565107 35.047115 69.583984 35 L 70 35 L 70 34 C 70 21.861562 60.138438 12 48 12 L 32 12 z M 32 14 L 48 14 C 59.057562 14 68 22.942438 68 34 C 68 34.56503 67.56503 35 67 35 L 13 35 C 12.43497 35 12 34.56503 12 34 C 12 22.942438 20.942438 14 32 14 z M 31.695312 18 A 1.0001 1.0001 0 1 0 31.695312 20 L 31.746094 20 A 1.0001 1.0001 0 1 0 31.746094 18 L 31.695312 18 z M 35.945312 18 L 35.144531 18.402344 L 34.986328 19.283203 L 35.599609 19.9375 L 35.945312 20 L 36.050781 20 L 36.851562 19.597656 L 37.009766 18.716797 L 36.398438 18.0625 L 36.050781 18 L 35.945312 18 z M 40.242188 18 L 39.441406 18.402344 L 39.283203 19.283203 L 39.894531 19.9375 L 40.242188 20 L 40.347656 20 L 41.148438 19.597656 L 41.306641 18.716797 L 40.693359 18.0625 L 40.347656 18 L 40.242188 18 z M 44.539062 18 L 43.738281 18.402344 L 43.580078 19.283203 L 44.191406 19.9375 L 44.539062 20 L 44.644531 20 L 45.445312 19.597656 L 45.603516 18.716797 L 44.990234 18.0625 L 44.644531 18 L 44.539062 18 z M 48.867188 18.017578 L 48.052734 18.392578 L 47.867188 19.269531 L 48.458984 19.943359 L 48.802734 20.015625 L 48.908203 20.019531 L 49.720703 19.644531 L 49.908203 18.767578 L 49.316406 18.09375 L 48.972656 18.021484 L 48.867188 18.017578 z M 53.373047 18.904297 L 52.482422 19.009766 L 52.033203 19.783203 L 52.384766 20.607422 L 52.691406 20.785156 L 52.789062 20.820312 L 53.679688 20.716797 L 54.128906 19.941406 L 53.777344 19.117188 L 53.472656 18.941406 L 53.373047 18.904297 z M 56.494141 20.970703 L 55.832031 21.574219 L 55.919922 22.464844 L 56.15625 22.726562 L 56.240234 22.789062 L 57.119141 22.958984 L 57.78125 22.355469 L 57.695312 21.462891 L 57.457031 21.203125 L 57.375 21.138672 L 56.494141 20.970703 z M 59.705078 24.068359 L 58.892578 24.447266 L 58.710938 25.324219 L 58.861328 25.644531 L 58.921875 25.730469 L 59.710938 26.152344 L 60.523438 25.773438 L 60.705078 24.896484 L 60.554688 24.576172 L 60.494141 24.490234 L 59.705078 24.068359 z M 61.476562 27.9375 A 1.0001 1.0001 0 0 0 60.523438 29.232422 C 60.521237 29.225022 60.524736 29.246588 60.541016 29.298828 A 1.0007358 1.0007358 0 1 0 62.451172 28.701172 C 62.457472 28.721402 62.453606 28.709369 62.441406 28.667969 A 1.0001 1.0001 0 0 0 61.476562 27.9375 z M 67.59375 36.919922 A 1.0001 1.0001 0 0 0 67.998047 37 C 69.748047 37 71.290062 37.663299 72.375 38.53125 C 73.459938 39.399201 73.998047 40.5 73.998047 41 C 73.998047 41.833333 73.796361 42.381775 73.615234 42.722656 C 73.434107 43.063537 73.337891 43.132812 73.337891 43.132812 L 73.316406 43.150391 L 73.296875 43.169922 C 72.171278 44.282822 70.389269 44.282822 69.263672 43.169922 L 69.263672 43.171875 L 68.445312 42.363281 C 66.556911 40.496181 63.489965 40.496181 61.601562 42.363281 L 60.783203 43.171875 L 60.783203 43.169922 C 59.657606 44.282822 57.87755 44.282822 56.751953 43.169922 L 56.751953 43.171875 L 55.933594 42.363281 C 54.824728 41.266945 53.308045 40.806938 51.867188 40.998047 C 50.852837 41.132706 49.869174 41.592721 49.089844 42.363281 L 49.087891 42.363281 L 48.271484 43.171875 L 48.271484 43.169922 C 47.145887 44.282822 45.363879 44.282822 44.238281 43.169922 L 44.238281 43.171875 L 43.421875 42.363281 C 41.533472 40.496181 38.464575 40.496181 36.576172 42.363281 L 35.759766 43.171875 L 35.759766 43.169922 C 34.634168 44.282822 32.85216 44.282822 31.726562 43.169922 L 31.726562 43.171875 L 30.910156 42.363281 C 29.021754 40.496181 25.952856 40.496181 24.064453 42.363281 L 23.248047 43.171875 L 23.248047 43.169922 C 22.12245 44.282822 20.340441 44.282822 19.214844 43.169922 L 19.214844 43.171875 L 18.398438 42.363281 C 16.510034 40.496181 13.441137 40.496181 11.552734 42.363281 L 10.736328 43.171875 L 10.736328 43.169922 C 9.610731 44.282822 7.8287223 44.282822 6.703125 43.169922 L 6.6835938 43.150391 L 6.6621094 43.132812 C 6.6621094 43.132812 6.5639394 43.063532 6.3828125 42.722656 C 6.2017259 42.381775 6 41.833333 6 41 C 6 40.5 6.5185812 39.427182 7.7128906 38.558594 C 8.9072 37.690005 10.7 37 13 37 L 67 37 C 67.209954 37 67.404918 36.966624 67.59375 36.919922 z M 14.976562 42.951172 C 15.703464 42.951172 16.429389 43.228707 16.992188 43.785156 L 17.808594 44.59375 C 19.696996 46.46085 22.765894 46.46085 24.654297 44.59375 L 25.470703 43.785156 C 26.5963 42.672257 28.378309 42.672257 29.503906 43.785156 L 30.320312 44.59375 C 32.208715 46.46085 35.277613 46.46085 37.166016 44.59375 L 37.982422 43.785156 C 39.108019 42.672257 40.890028 42.672257 42.015625 43.785156 L 42.832031 44.59375 C 44.720434 46.46085 47.789332 46.46085 49.677734 44.59375 L 50.494141 43.785156 C 50.95881 43.325716 51.53321 43.059809 52.130859 42.980469 C 52.982001 42.867577 53.866209 43.131492 54.527344 43.785156 L 55.345703 44.59375 C 57.234106 46.46085 60.30105 46.46085 62.189453 44.59375 L 63.007812 43.785156 C 64.13341 42.672257 65.913466 42.672257 67.039062 43.785156 L 67.857422 44.59375 C 68.730748 45.457224 69.856277 45.903116 71 45.966797 A 1.0001 1.0001 0 0 0 71 46 C 71 47.668484 69.668484 49 68 49 L 65.998047 49 L 54 49 A 1.0001 1.0001 0 1 0 54 51 L 54.097656 51 L 57.544922 51 C 49.18548 54.036561 38.744484 58.267355 33.228516 61.734375 C 32.06971 60.226404 31.111582 59.261922 30.013672 57.996094 A 1.0001 1.0001 0 0 0 29.166016 57.011719 C 28.079925 55.794047 26.810856 54.142459 25.896484 53.210938 L 25.894531 53.210938 C 23.242153 50.510071 19.618883 49 15.835938 49 L 14.072266 49 L 12 49 C 10.331516 49 9 47.668484 9 46 A 1.0001 1.0001 0 0 0 8.9980469 45.966797 C 10.142411 45.903234 11.269109 45.457369 12.142578 44.59375 L 12.958984 43.785156 C 13.521783 43.228707 14.249661 42.951172 14.976562 42.951172 z M 26.048828 49 C 25.495828 49 25.048828 49.448 25.048828 50 C 25.048828 50.552 25.495828 51 26.048828 51 L 26.146484 51 C 26.699484 51 27.097656 50.552 27.097656 50 C 27.097656 49.448 26.601828 49 26.048828 49 z M 30.048828 49 C 29.495828 49 29.048828 49.448 29.048828 50 C 29.048828 50.552 29.495828 51 30.048828 51 L 30.146484 51 C 30.699484 51 31.097656 50.552 31.097656 50 C 31.097656 49.448 30.601828 49 30.048828 49 z M 34.048828 49 C 33.495828 49 33.048828 49.448 33.048828 50 C 33.048828 50.552 33.495828 51 34.048828 51 L 34.146484 51 C 34.699484 51 35.097656 50.552 35.097656 50 C 35.097656 49.448 34.601828 49 34.048828 49 z M 38.048828 49 C 37.495828 49 37.048828 49.448 37.048828 50 C 37.048828 50.552 37.495828 51 38.048828 51 L 38.146484 51 C 38.699484 51 39.097656 50.552 39.097656 50 C 39.097656 49.448 38.601828 49 38.048828 49 z M 41.951172 49 C 41.398172 49 40.951172 49.448 40.951172 50 C 40.951172 50.552 41.398172 51 41.951172 51 L 42.048828 51 C 42.601828 51 43 50.552 43 50 C 43 49.448 42.504172 49 41.951172 49 z M 45.951172 49 C 45.398172 49 44.951172 49.448 44.951172 50 C 44.951172 50.552 45.398172 51 45.951172 51 L 46.048828 51 C 46.601828 51 47 50.552 47 50 C 47 49.448 46.504172 49 45.951172 49 z M 50 49 C 49.447 49 49 49.448 49 50 C 49 50.552 49.447 51 50 51 L 50.097656 51 C 50.649656 51 51.048828 50.552 51.048828 50 C 51.048828 49.448 50.553 49 50 49 z M 12 51 L 14.072266 51 L 15.835938 51 C 19.08699 51 22.193175 52.296147 24.46875 54.613281 C 25.042737 55.198034 25.871422 56.297152 26.521484 57 L 16 57 L 12 57 C 10.331516 57 9 55.668484 9 54 C 9 52.331516 10.331516 51 12 51 z M 63.169922 51 L 68 51 C 69.668484 51 71 52.331516 71 54 C 71 55.668484 69.668484 57 68 57 L 64 57 L 47.453125 57 C 53.054321 54.638184 58.968036 52.405952 63.169922 51 z M 42.886719 58.994141 A 1.0001 1.0001 0 0 0 43 59 L 64 59 L 68 59 L 68 61 C 68 63.773666 65.773666 66 63 66 L 17 66 C 14.226334 66 12 63.773666 12 61 L 12 59 L 16 59 L 28.242188 59 C 29.583759 60.533419 30.772237 61.696629 32.199219 63.599609 L 32.767578 64.357422 L 33.554688 63.832031 C 35.633409 62.446217 39.026569 60.738595 42.886719 58.994141 z"/></svg>
