<svg xmlns="http://www.w3.org/2000/svg"  viewBox="0 0 50 50" width="100px" height="100px" fill="#ffffff"><path d="M 29 0 C 27.90625 0 27 0.90625 27 2 L 27 5 C 27 5.976563 27.722656 6.804688 28.65625 6.96875 C 28.246094 7.632813 27.835938 8.382813 27.4375 9.28125 C 26.609375 11.148438 25.8125 13.429688 25.1875 15.59375 L 23.8125 14.8125 C 23.605469 14.691406 23.363281 14.644531 23.125 14.6875 C 22.933594 14.730469 22.761719 14.828125 22.625 14.96875 L 21.28125 16.25 C 19.492188 14.714844 17.164063 13.78125 14.625 13.78125 C 9.167969 13.78125 4.675781 18.078125 4.40625 24 L 2.84375 24 C 1.285156 24 0 25.285156 0 26.84375 L 0 30.15625 C 0 31.714844 1.285156 33 2.84375 33 L 3 33 L 3 36 C 3 36.21875 3.023438 36.191406 3.03125 36.21875 C 3.039063 36.246094 3.027344 36.261719 3.03125 36.28125 C 3.042969 36.320313 3.050781 36.355469 3.0625 36.40625 C 3.089844 36.503906 3.140625 36.652344 3.1875 36.8125 C 3.28125 37.132813 3.402344 37.566406 3.5625 38.09375 C 3.878906 39.148438 4.328125 40.554688 4.75 41.9375 C 5.597656 44.707031 6.4375 47.4375 6.4375 47.4375 C 6.449219 47.511719 6.472656 47.585938 6.5 47.65625 C 6.769531 48.140625 7.046875 48.632813 7.4375 49.09375 C 7.828125 49.554688 8.457031 50 9.21875 50 L 40.78125 50 C 41.554688 50 42.269531 49.621094 42.6875 49.125 C 43.105469 48.628906 43.308594 48.066406 43.53125 47.53125 C 43.542969 47.5 43.554688 47.46875 43.5625 47.4375 C 43.5625 47.4375 44.402344 44.707031 45.25 41.9375 C 45.671875 40.554688 46.121094 39.148438 46.4375 38.09375 C 46.597656 37.566406 46.71875 37.132813 46.8125 36.8125 C 46.859375 36.652344 46.910156 36.503906 46.9375 36.40625 C 46.949219 36.355469 46.957031 36.320313 46.96875 36.28125 C 46.972656 36.261719 46.960938 36.246094 46.96875 36.21875 C 46.976563 36.191406 47 36.21875 47 36 L 47 33 L 47.15625 33 C 48.714844 33 50 31.714844 50 30.15625 L 50 26.84375 C 50 25.285156 48.714844 24 47.15625 24 L 44 24 L 44 21.8125 C 44 19.558594 42.941406 15.703125 41.65625 12.15625 C 41.015625 10.382813 40.328125 8.703125 39.625 7.4375 C 39.53125 7.269531 39.4375 7.125 39.34375 6.96875 C 40.277344 6.804688 41 5.976563 41 5 L 41 2 C 41 0.90625 40.09375 0 39 0 Z M 29 2 L 39 2 L 39 5 L 29 5 Z M 31.09375 7 L 36.84375 7 C 36.871094 7.015625 36.953125 7.066406 37.0625 7.1875 C 37.28125 7.429688 37.566406 7.882813 37.875 8.4375 C 38.492188 9.546875 39.164063 11.105469 39.78125 12.8125 C 41.015625 16.226563 42 20.269531 42 21.8125 L 42 24 L 40 24 C 39.988281 23.988281 39.980469 23.980469 39.96875 23.96875 L 26.96875 16.625 C 27.582031 14.402344 28.414063 11.984375 29.25 10.09375 C 29.710938 9.050781 30.203125 8.160156 30.59375 7.59375 C 30.789063 7.3125 30.957031 7.121094 31.0625 7.03125 C 31.089844 7.007813 31.082031 7.007813 31.09375 7 Z M 14.625 15.78125 C 16.601563 15.78125 18.398438 16.46875 19.8125 17.625 L 13.0625 24 L 6.40625 24 C 6.660156 19.066406 10.222656 15.78125 14.625 15.78125 Z M 23.4375 16.9375 L 35.9375 24 L 15.96875 24 Z M 2.84375 26 L 47.15625 26 C 47.628906 26 48 26.371094 48 26.84375 L 48 30.15625 C 48 30.628906 47.628906 31 47.15625 31 L 4.0625 31 C 4.042969 31 4.019531 31 4 31 L 2.84375 31 C 2.371094 31 2 30.628906 2 30.15625 L 2 26.84375 C 2 26.371094 2.371094 26 2.84375 26 Z M 5 33 L 12 33 L 12 45 C 12 45.550781 12.449219 46 13 46 L 16 46 C 16.550781 46 17 45.550781 17 45 L 17 33 L 19 33 L 19 45 C 19 45.550781 19.449219 46 20 46 L 23 46 C 23.550781 46 24 45.550781 24 45 L 24 33 L 26 33 L 26 45 C 26 45.550781 26.449219 46 27 46 L 30 46 C 30.550781 46 31 45.550781 31 45 L 31 33 L 33 33 L 33 45 C 33 45.550781 33.449219 46 34 46 L 37 46 C 37.550781 46 38 45.550781 38 45 L 38 33 L 45 33 L 45 35.875 C 44.976563 35.957031 44.953125 36.09375 44.90625 36.25 C 44.816406 36.5625 44.660156 37.003906 44.5 37.53125 C 44.183594 38.582031 43.765625 39.960938 43.34375 41.34375 C 42.511719 44.0625 41.714844 46.691406 41.6875 46.78125 C 41.6875 46.78125 41.65625 46.875 41.65625 46.875 C 41.464844 47.316406 41.285156 47.660156 41.15625 47.8125 C 41.015625 47.980469 41.023438 48 40.78125 48 L 9.21875 48 C 9.144531 48 9.152344 48 8.96875 47.78125 C 8.800781 47.582031 8.558594 47.191406 8.3125 46.75 C 8.277344 46.632813 7.484375 44.050781 6.65625 41.34375 C 6.234375 39.960938 5.816406 38.582031 5.5 37.53125 C 5.339844 37.003906 5.183594 36.5625 5.09375 36.25 C 5.046875 36.09375 5.023438 35.957031 5 35.875 Z M 14 33 L 15 33 L 15 44 L 14 44 Z M 21 33 L 22 33 L 22 44 L 21 44 Z M 28 33 L 29 33 L 29 44 L 28 44 Z M 35 33 L 36 33 L 36 44 L 35 44 Z"/></svg>
