<svg fill="#ffffff" xmlns="http://www.w3.org/2000/svg"  viewBox="0 0 64 64" width="132px" height="132px"><path d="M 26.839844 6.1894531 C 26.129844 6.1894531 25.550781 6.7704688 25.550781 7.4804688 L 25.550781 11.349609 L 18.859375 11.349609 C 14.589375 11.349609 10.969062 14.259688 10.039062 18.429688 L 7.4101562 30.199219 C 3.6601562 31.749219 1.0195312 35.440234 1.0195312 39.740234 C 1.0195312 43.550234 3.0996875 46.879922 6.1796875 48.669922 L 6.1796875 53.939453 C 6.1796875 56.079453 7.9207813 57.810547 10.050781 57.810547 L 15.210938 57.810547 C 17.350938 57.810547 19.080078 56.069453 19.080078 53.939453 L 19.080078 50.070312 L 44.890625 50.070312 L 44.890625 53.939453 C 44.890625 56.079453 46.629766 57.810547 48.759766 57.810547 L 53.919922 57.810547 C 56.059922 57.810547 57.789062 56.069453 57.789062 53.939453 L 57.789062 48.669922 C 60.889063 46.879922 62.980469 43.560234 62.980469 39.740234 C 62.980469 35.440234 60.339844 31.749219 56.589844 30.199219 L 53.970703 18.419922 C 53.040703 14.259922 49.420391 11.349609 45.150391 11.349609 L 38.460938 11.349609 L 38.460938 7.4804688 C 38.460938 6.7704688 37.879922 6.1894531 37.169922 6.1894531 L 26.839844 6.1894531 z M 28.130859 8.7695312 L 35.880859 8.7695312 L 35.880859 11.349609 L 28.130859 11.349609 L 28.130859 8.7695312 z M 18.849609 13.939453 L 45.150391 13.939453 C 48.200391 13.939453 50.789219 16.020234 51.449219 18.990234 L 53.779297 29.490234 C 53.409297 29.450234 53.030391 29.429688 52.650391 29.429688 L 11.349609 29.429688 C 10.969609 29.429688 10.590703 29.450234 10.220703 29.490234 L 12.550781 18.990234 C 13.210781 16.010234 15.799609 13.939453 18.849609 13.939453 z M 11.349609 32.009766 L 52.650391 32.009766 C 56.920391 32.009766 60.390625 35.48 60.390625 39.75 C 60.390625 44.01 56.920391 47.490234 52.650391 47.490234 L 11.349609 47.490234 C 7.0796094 47.490234 3.609375 44.02 3.609375 39.75 C 3.609375 35.48 7.0796094 32.009766 11.349609 32.009766 z M 11.349609 34.580078 C 8.4996094 34.580078 6.1894531 36.900234 6.1894531 39.740234 C 6.1894531 42.590234 8.5096094 44.900391 11.349609 44.900391 C 14.189609 44.900391 16.509766 42.580234 16.509766 39.740234 C 16.509766 36.900234 14.199609 34.580078 11.349609 34.580078 z M 52.650391 34.580078 C 49.800391 34.580078 47.490234 36.900234 47.490234 39.740234 C 47.490234 42.590234 49.810391 44.900391 52.650391 44.900391 C 55.500391 44.900391 57.810547 42.580234 57.810547 39.740234 C 57.810547 36.900234 55.500391 34.580078 52.650391 34.580078 z M 24.25 35.869141 C 23.54 35.869141 22.960938 36.450156 22.960938 37.160156 C 22.960938 37.870156 23.54 38.449219 24.25 38.449219 L 39.740234 38.449219 C 40.450234 38.449219 41.029297 37.870156 41.029297 37.160156 C 41.029297 36.450156 40.460234 35.869141 39.740234 35.869141 L 24.25 35.869141 z M 11.349609 37.169922 C 12.769609 37.169922 13.929688 38.33 13.929688 39.75 C 13.929688 41.17 12.769609 42.330078 11.349609 42.330078 C 9.9296094 42.330078 8.7695312 41.17 8.7695312 39.75 C 8.7695312 38.33 9.9296094 37.169922 11.349609 37.169922 z M 52.650391 37.169922 C 54.070391 37.169922 55.230469 38.33 55.230469 39.75 C 55.230469 41.17 54.070391 42.330078 52.650391 42.330078 C 51.230391 42.330078 50.070312 41.17 50.070312 39.75 C 50.070312 38.33 51.230391 37.169922 52.650391 37.169922 z M 24.25 41.029297 C 23.54 41.029297 22.960938 41.610312 22.960938 42.320312 C 22.960938 43.030313 23.54 43.609375 24.25 43.609375 L 39.740234 43.609375 C 40.450234 43.609375 41.029297 43.030313 41.029297 42.320312 C 41.029297 41.610312 40.460234 41.029297 39.740234 41.029297 L 24.25 41.029297 z M 8.7695312 49.730469 C 9.5995313 49.940469 10.459609 50.070313 11.349609 50.070312 L 16.509766 50.070312 L 16.509766 53.939453 C 16.509766 54.649453 15.930703 55.230469 15.220703 55.230469 L 10.060547 55.230469 C 9.3505469 55.230469 8.7695312 54.649453 8.7695312 53.939453 L 8.7695312 49.730469 z M 55.230469 49.730469 L 55.230469 53.939453 C 55.230469 54.649453 54.649453 55.230469 53.939453 55.230469 L 48.779297 55.230469 C 48.069297 55.230469 47.490234 54.649453 47.490234 53.939453 L 47.490234 50.070312 L 52.650391 50.070312 C 53.540391 50.070312 54.400469 49.940469 55.230469 49.730469 z"/></svg>
