<svg fill="#000000" xmlns="http://www.w3.org/2000/svg"  viewBox="0 0 80 80" width="80px" height="80px"><path d="M 39 5 C 38.449219 5 38 5.449219 38 6 C 38 6.550781 38.449219 7 39 7 C 39.550781 7 40 6.550781 40 6 C 40 5.449219 39.550781 5 39 5 Z M 28 9 C 27.449219 9 27 9.449219 27 10 C 27 10.550781 27.449219 11 28 11 C 28.550781 11 29 10.550781 29 10 C 29 9.449219 28.550781 9 28 9 Z M 37 9 C 36.449219 9 36 9.449219 36 10 C 36 10.550781 36.449219 11 37 11 C 37.550781 11 38 10.550781 38 10 C 38 9.449219 37.550781 9 37 9 Z M 46 9 C 45.449219 9 45 9.449219 45 10 C 45 10.550781 45.449219 11 46 11 C 46.550781 11 47 10.550781 47 10 C 47 9.449219 46.550781 9 46 9 Z M 30 13 C 29.449219 13 29 13.449219 29 14 C 29 14.550781 29.449219 15 30 15 C 30.550781 15 31 14.550781 31 14 C 31 13.449219 30.550781 13 30 13 Z M 39 13 C 38.449219 13 38 13.449219 38 14 C 38 14.550781 38.449219 15 39 15 C 39.550781 15 40 14.550781 40 14 C 40 13.449219 39.550781 13 39 13 Z M 48 13 C 47.449219 13 47 13.449219 47 14 C 47 14.550781 47.449219 15 48 15 C 48.550781 15 49 14.550781 49 14 C 49 13.449219 48.550781 13 48 13 Z M 28 17 C 27.449219 17 27 17.449219 27 18 C 27 18.550781 27.449219 19 28 19 C 28.550781 19 29 18.550781 29 18 C 29 17.449219 28.550781 17 28 17 Z M 37 17 C 36.449219 17 36 17.449219 36 18 C 36 18.550781 36.449219 19 37 19 C 37.550781 19 38 18.550781 38 18 C 38 17.449219 37.550781 17 37 17 Z M 46 17 C 45.449219 17 45 17.449219 45 18 C 45 18.550781 45.449219 19 46 19 C 46.550781 19 47 18.550781 47 18 C 47 17.449219 46.550781 17 46 17 Z M 30 21 C 29.449219 21 29 21.449219 29 22 C 29 22.550781 29.449219 23 30 23 C 30.550781 23 31 22.550781 31 22 C 31 21.449219 30.550781 21 30 21 Z M 39 21 C 38.449219 21 38 21.449219 38 22 C 38 22.550781 38.449219 23 39 23 C 39.550781 23 40 22.550781 40 22 C 40 21.449219 39.550781 21 39 21 Z M 48 21 C 47.449219 21 47 21.449219 47 22 C 47 22.550781 47.449219 23 48 23 C 48.550781 23 49 22.550781 49 22 C 49 21.449219 48.550781 21 48 21 Z M 12 26 L 12 50 C 12 53.429688 13.25 56.5625 15.300781 59 L 9 59 C 7.355469 59 6 60.355469 6 62 C 6 63.644531 7.355469 65 9 65 L 9.5 65 C 11.929688 68.664063 16.019531 71 20.546875 71 L 55.453125 71 C 59.980469 71 64.070313 68.664063 66.5 65 L 67 65 C 68.644531 65 70 63.644531 70 62 C 70 60.355469 68.644531 59 67 59 L 60.699219 59 C 62.339844 57.046875 63.457031 54.640625 63.84375 52 L 65 52 C 69.40625 52 73 48.40625 73 44 L 73 36 C 73 34.355469 71.644531 33 70 33 L 64 33 L 64 26 Z M 14 28 L 62 28 L 62 31 C 61.449219 31 61 31.449219 61 32 C 61 32.550781 61.449219 33 62 33 L 62 50 C 62 53.601563 60.394531 56.800781 57.890625 59 L 18.109375 59 C 15.605469 56.800781 14 53.601563 14 50 L 14 33 C 14.550781 33 15 32.550781 15 32 C 15 31.449219 14.550781 31 14 31 Z M 18 31 C 17.449219 31 17 31.449219 17 32 C 17 32.550781 17.449219 33 18 33 C 18.550781 33 19 32.550781 19 32 C 19 31.449219 18.550781 31 18 31 Z M 22 31 C 21.449219 31 21 31.449219 21 32 C 21 32.550781 21.449219 33 22 33 C 22.550781 33 23 32.550781 23 32 C 23 31.449219 22.550781 31 22 31 Z M 26 31 C 25.449219 31 25 31.449219 25 32 C 25 32.550781 25.449219 33 26 33 C 26.550781 33 27 32.550781 27 32 C 27 31.449219 26.550781 31 26 31 Z M 30 31 C 29.449219 31 29 31.449219 29 32 C 29 32.550781 29.449219 33 30 33 C 30.550781 33 31 32.550781 31 32 C 31 31.449219 30.550781 31 30 31 Z M 34 31 C 33.449219 31 33 31.449219 33 32 C 33 32.550781 33.449219 33 34 33 C 34.550781 33 35 32.550781 35 32 C 35 31.449219 34.550781 31 34 31 Z M 38 31 C 37.449219 31 37 31.449219 37 32 C 37 32.550781 37.449219 33 38 33 C 38.550781 33 39 32.550781 39 32 C 39 31.449219 38.550781 31 38 31 Z M 42 31 C 41.449219 31 41 31.449219 41 32 C 41 32.550781 41.449219 33 42 33 C 42.550781 33 43 32.550781 43 32 C 43 31.449219 42.550781 31 42 31 Z M 46 31 C 45.449219 31 45 31.449219 45 32 C 45 32.550781 45.449219 33 46 33 C 46.550781 33 47 32.550781 47 32 C 47 31.449219 46.550781 31 46 31 Z M 50 31 C 49.449219 31 49 31.449219 49 32 C 49 32.550781 49.449219 33 50 33 C 50.550781 33 51 32.550781 51 32 C 51 31.449219 50.550781 31 50 31 Z M 54 31 C 53.449219 31 53 31.449219 53 32 C 53 32.550781 53.449219 33 54 33 C 54.550781 33 55 32.550781 55 32 C 55 31.449219 54.550781 31 54 31 Z M 58 31 C 57.449219 31 57 31.449219 57 32 C 57 32.550781 57.449219 33 58 33 C 58.550781 33 59 32.550781 59 32 C 59 31.449219 58.550781 31 58 31 Z M 64 35 L 70 35 C 70.566406 35 71 35.433594 71 36 L 71 44 C 71 47.324219 68.324219 50 65 50 L 64 50 Z M 9 61 L 67 61 C 67.566406 61 68 61.433594 68 62 C 68 62.566406 67.566406 63 67 63 L 65.460938 63 L 65.171875 63.484375 C 63.148438 66.863281 59.488281 69 55.453125 69 L 20.546875 69 C 16.511719 69 12.851563 66.863281 10.828125 63.484375 L 10.539063 63 L 9 63 C 8.433594 63 8 62.566406 8 62 C 8 61.433594 8.433594 61 9 61 Z M 14 63 C 13.449219 63 13 63.449219 13 64 C 13 64.550781 13.449219 65 14 65 C 14.550781 65 15 64.550781 15 64 C 15 63.449219 14.550781 63 14 63 Z M 18 63 C 17.449219 63 17 63.449219 17 64 C 17 64.550781 17.449219 65 18 65 C 18.550781 65 19 64.550781 19 64 C 19 63.449219 18.550781 63 18 63 Z M 22 63 C 21.449219 63 21 63.449219 21 64 C 21 64.550781 21.449219 65 22 65 C 22.550781 65 23 64.550781 23 64 C 23 63.449219 22.550781 63 22 63 Z M 26 63 C 25.449219 63 25 63.449219 25 64 C 25 64.550781 25.449219 65 26 65 C 26.550781 65 27 64.550781 27 64 C 27 63.449219 26.550781 63 26 63 Z M 30 63 C 29.449219 63 29 63.449219 29 64 C 29 64.550781 29.449219 65 30 65 C 30.550781 65 31 64.550781 31 64 C 31 63.449219 30.550781 63 30 63 Z M 34 63 C 33.449219 63 33 63.449219 33 64 C 33 64.550781 33.449219 65 34 65 C 34.550781 65 35 64.550781 35 64 C 35 63.449219 34.550781 63 34 63 Z M 38 63 C 37.449219 63 37 63.449219 37 64 C 37 64.550781 37.449219 65 38 65 C 38.550781 65 39 64.550781 39 64 C 39 63.449219 38.550781 63 38 63 Z M 42 63 C 41.449219 63 41 63.449219 41 64 C 41 64.550781 41.449219 65 42 65 C 42.550781 65 43 64.550781 43 64 C 43 63.449219 42.550781 63 42 63 Z M 46 63 C 45.449219 63 45 63.449219 45 64 C 45 64.550781 45.449219 65 46 65 C 46.550781 65 47 64.550781 47 64 C 47 63.449219 46.550781 63 46 63 Z M 50 63 C 49.449219 63 49 63.449219 49 64 C 49 64.550781 49.449219 65 50 65 C 50.550781 65 51 64.550781 51 64 C 51 63.449219 50.550781 63 50 63 Z M 54 63 C 53.449219 63 53 63.449219 53 64 C 53 64.550781 53.449219 65 54 65 C 54.550781 65 55 64.550781 55 64 C 55 63.449219 54.550781 63 54 63 Z M 58 63 C 57.449219 63 57 63.449219 57 64 C 57 64.550781 57.449219 65 58 65 C 58.550781 65 59 64.550781 59 64 C 59 63.449219 58.550781 63 58 63 Z M 62 63 C 61.449219 63 61 63.449219 61 64 C 61 64.550781 61.449219 65 62 65 C 62.550781 65 63 64.550781 63 64 C 63 63.449219 62.550781 63 62 63 Z"/></svg>