<svg xmlns="http://www.w3.org/2000/svg"  viewBox="0 0 50 50" width="100px" height="100px" fill="#ffffff"><path d="M 6.5 0 C 6.3125 -0.00390625 6.128906 0.0273438 5.9375 0.0625 L 2.3125 0.75 C 0.777344 1.039063 -0.226563 2.53125 0.0625 4.0625 L 2.4375 16.75 C 2.726563 18.285156 4.246094 19.320313 5.78125 19.03125 L 9.40625 18.34375 C 10.941406 18.054688 11.945313 16.5625 11.65625 15.03125 C 11.65625 15.019531 11.65625 15.011719 11.65625 15 L 10.59375 9.3125 C 11.367188 9.214844 12.199219 9.125 13.125 9.03125 C 13.429688 16.613281 14.550781 20.917969 15.75 23.5 C 16.367188 24.828125 17 25.703125 17.5 26.3125 C 17.980469 26.898438 18.261719 27.226563 18.28125 27.25 C 18.28125 27.25 18.3125 27.28125 18.3125 27.28125 C 18.429688 27.871094 18.683594 28.980469 18.96875 30.125 C 19.199219 31.054688 19.3125 31.542969 19.40625 31.90625 L 6.3125 44.4375 L 6.1875 44.53125 L 6.1875 44.5625 C 5.476563 45.109375 5.011719 45.800781 4.875 46.5 C 4.730469 47.246094 4.886719 47.9375 5.125 48.46875 C 5.867188 50.136719 8.078125 50.425781 9.625 49.3125 C 9.636719 49.300781 9.644531 49.292969 9.65625 49.28125 L 26.3125 36.59375 L 33.6875 38 C 33.578125 39.304688 33.132813 44.730469 33.03125 45.75 C 32.957031 46.476563 32.957031 47.359375 33.28125 48.21875 C 33.441406 48.648438 33.6875 49.066406 34.09375 49.40625 C 34.5 49.746094 35.066406 49.96875 35.65625 49.96875 C 36.464844 49.96875 37.285156 49.804688 37.875 49.25 C 38.464844 48.695313 38.738281 47.960938 39 47.03125 C 39.011719 46.992188 39.023438 46.949219 39.03125 46.90625 C 39.03125 46.90625 39.457031 44.210938 39.90625 41.375 C 40.355469 38.539063 40.828125 35.675781 40.90625 34.9375 C 40.980469 34.230469 40.921875 33.566406 40.5625 33 C 40.203125 32.433594 39.667969 32.160156 39.125 31.9375 C 38.566406 31.707031 36.679688 31.035156 34.875 30.375 C 33.460938 29.855469 32.671875 29.5625 32.15625 29.375 C 32.289063 28.710938 32.542969 27.464844 32.65625 26.09375 C 33.3125 24.796875 34.1875 23.273438 35 20.625 C 35.777344 18.082031 36.472656 14.460938 36.9375 9.03125 C 37.84375 9.125 38.644531 9.242188 39.40625 9.34375 L 38.34375 15 C 38.34375 15.011719 38.34375 15.019531 38.34375 15.03125 C 38.054688 16.5625 39.058594 18.054688 40.59375 18.34375 L 44.21875 19.03125 C 45.753906 19.320313 47.273438 18.285156 47.5625 16.75 L 49.9375 4.0625 C 50.226563 2.53125 49.222656 1.007813 47.6875 0.71875 L 44.0625 0.0625 C 42.53125 -0.226563 41.007813 0.777344 40.71875 2.3125 L 39.78125 7.34375 C 38.929688 7.234375 38.023438 7.132813 37 7.03125 C 36.929688 6.632813 36.785156 6.265625 36.53125 5.9375 C 36.070313 5.34375 35.308594 5.027344 34.53125 5 C 33.429688 4.957031 32.515625 5.695313 32.1875 6.65625 C 30.019531 6.535156 27.640625 6.46875 25 6.46875 C 22.359375 6.46875 19.980469 6.539063 17.8125 6.65625 C 17.609375 6.117188 17.296875 5.699219 16.90625 5.4375 C 16.257813 5.003906 15.585938 5.089844 15.4375 5.09375 C 14.53125 5.125 13.6875 5.671875 13.375 6.375 C 13.28125 6.582031 13.230469 6.796875 13.1875 7 C 12.097656 7.109375 11.113281 7.222656 10.21875 7.34375 L 9.28125 2.3125 C 9.03125 0.96875 7.820313 0.0195313 6.5 0 Z M 6.3125 2 C 6.78125 1.910156 7.222656 2.21875 7.3125 2.6875 L 9.71875 15.375 C 9.808594 15.847656 9.5 16.285156 9.03125 16.375 L 5.40625 17.0625 C 4.9375 17.152344 4.496094 16.84375 4.40625 16.375 L 2 3.6875 C 1.910156 3.214844 2.21875 2.777344 2.6875 2.6875 Z M 43.34375 2 C 43.453125 1.976563 43.570313 1.976563 43.6875 2 L 47.3125 2.6875 C 47.78125 2.777344 48.089844 3.21875 48 3.6875 L 45.59375 16.375 C 45.503906 16.84375 45.0625 17.152344 44.59375 17.0625 L 40.96875 16.375 C 40.5 16.285156 40.191406 15.847656 40.28125 15.375 L 42.6875 2.6875 C 42.753906 2.335938 43.015625 2.070313 43.34375 2 Z M 34.46875 7 C 34.816406 7.011719 34.878906 7.082031 34.9375 7.15625 C 34.996094 7.230469 35.078125 7.429688 35.03125 7.8125 C 35.03125 7.824219 35.03125 7.832031 35.03125 7.84375 C 34.578125 13.804688 33.835938 17.503906 33.0625 20.03125 C 32.289063 22.558594 31.484375 23.910156 30.78125 25.3125 C 30.722656 25.441406 30.691406 25.578125 30.6875 25.71875 C 30.609375 27.113281 30.0625 29.84375 30.0625 29.84375 C 29.972656 30.328125 30.253906 30.808594 30.71875 30.96875 C 30.71875 30.96875 32.382813 31.589844 34.1875 32.25 C 35.992188 32.910156 37.992188 33.625 38.375 33.78125 C 38.777344 33.945313 38.859375 34.066406 38.875 34.09375 C 38.890625 34.121094 38.960938 34.222656 38.90625 34.71875 C 38.863281 35.121094 38.386719 38.226563 37.9375 41.0625 C 37.5 43.832031 37.113281 46.347656 37.09375 46.46875 C 37.09375 46.46875 37.0625 46.5 37.0625 46.5 C 36.84375 47.253906 36.628906 47.660156 36.5 47.78125 C 36.367188 47.90625 36.226563 47.96875 35.65625 47.96875 C 35.484375 47.96875 35.441406 47.929688 35.375 47.875 C 35.308594 47.820313 35.230469 47.703125 35.15625 47.5 C 35.003906 47.097656 34.953125 46.425781 35 45.9375 C 35.128906 44.652344 35.75 37.25 35.75 37.25 C 35.789063 36.738281 35.441406 36.28125 34.9375 36.1875 L 26.21875 34.53125 C 25.945313 34.480469 25.660156 34.550781 25.4375 34.71875 L 8.46875 47.6875 C 7.820313 48.152344 7.054688 47.847656 6.96875 47.65625 C 6.859375 47.410156 6.796875 47.113281 6.84375 46.875 C 6.890625 46.636719 7.015625 46.378906 7.46875 46.0625 C 7.503906 46.035156 7.535156 46.003906 7.5625 45.96875 L 21.21875 32.9375 C 21.480469 32.6875 21.589844 32.320313 21.5 31.96875 C 21.5 31.96875 21.207031 30.871094 20.90625 29.65625 C 20.605469 28.441406 20.273438 27.042969 20.21875 26.75 C 20.214844 26.6875 20.203125 26.625 20.1875 26.5625 C 19.917969 25.867188 19.496094 25.558594 19.0625 25.03125 C 18.628906 24.503906 18.101563 23.816406 17.5625 22.65625 C 16.488281 20.339844 15.351563 16.164063 15.09375 8.34375 C 15.074219 7.757813 15.132813 7.316406 15.1875 7.1875 C 15.242188 7.058594 15.113281 7.105469 15.5 7.09375 C 15.769531 7.085938 15.796875 7.082031 15.8125 7.09375 C 15.828125 7.105469 16 7.203125 16.0625 8.03125 C 16.070313 8.0625 16.082031 8.09375 16.09375 8.125 C 16.6875 11.707031 17.121094 15.578125 18.25 18.6875 C 18.8125 20.242188 19.550781 21.628906 20.65625 22.65625 C 21.761719 23.683594 23.242188 24.28125 25 24.28125 C 26.753906 24.28125 28.222656 23.773438 29.34375 22.8125 C 30.464844 21.851563 31.214844 20.511719 31.78125 18.96875 C 32.910156 15.882813 33.351563 11.875 34.0625 7.4375 C 34.0625 7.425781 34.0625 7.417969 34.0625 7.40625 C 34.105469 7.113281 34.25 6.992188 34.46875 7 Z M 25 8.46875 C 27.511719 8.46875 29.769531 8.542969 31.84375 8.65625 C 31.28125 12.308594 30.800781 15.625 30 17.96875 C 29.523438 15.65625 27.445313 13.90625 25 13.90625 C 22.625 13.90625 20.617188 15.566406 20.0625 17.78125 C 19.191406 15.265625 18.714844 11.945313 18.1875 8.65625 C 20.253906 8.546875 22.5 8.46875 25 8.46875 Z M 25 16.09375 C 26.625 16.09375 27.90625 17.375 27.90625 19 C 27.90625 20.625 26.625 21.90625 25 21.90625 C 23.375 21.90625 22.09375 20.625 22.09375 19 C 22.09375 17.375 23.375 16.09375 25 16.09375 Z"/></svg>
