<svg xmlns="http://www.w3.org/2000/svg"  viewBox="0 0 50 50" width="100px" height="100px" fill="#ffffff"><path d="M 21 0 C 19.35503 0 18 1.3550302 18 3 L 18 11 L 15 11 C 12.250484 11 10 13.250484 10 16 L 10 41 C 10 43.541389 11.949827 45.57522 14.412109 45.880859 C 14.262608 46.257609 14 46.603677 14 47 C 14 47.722222 14.235347 48.457881 14.751953 49.039062 C 15.268559 49.620244 16.083334 50 17 50 C 17.916666 50 18.731441 49.620245 19.248047 49.039062 C 19.764653 48.457881 20 47.722222 20 47 C 20 46.645765 19.749668 46.340961 19.630859 46 L 30.369141 46 C 30.250332 46.340961 30 46.645765 30 47 C 30 47.722222 30.235347 48.457881 30.751953 49.039062 C 31.268559 49.620244 32.083334 50 33 50 C 33.916666 50 34.731441 49.620245 35.248047 49.039062 C 35.764653 48.457881 36 47.722222 36 47 C 36 46.603677 35.737392 46.257609 35.587891 45.880859 C 38.050173 45.57522 40 43.541389 40 41 L 40 16 C 40 13.250484 37.749516 11 35 11 L 32 11 L 32 3 C 32 1.3550302 30.64497 0 29 0 L 21 0 z M 21 2 L 29 2 C 29.56503 2 30 2.4349698 30 3 L 30 4 L 20 4 L 20 3 C 20 2.4349698 20.43497 2 21 2 z M 20 6 L 30 6 L 30 11 L 20 11 L 20 6 z M 15 13 L 35 13 C 36.668484 13 38 14.331516 38 16 L 38 19 L 12 19 L 12 16 C 12 14.331516 13.331516 13 15 13 z M 12 21 L 38 21 L 38 36 L 12 36 L 12 21 z M 18.5 25 A 2.5 2.5 0 0 0 18.5 30 A 2.5 2.5 0 0 0 18.5 25 z M 32 27 L 27 30 L 29 33 L 34 30 L 32 27 z M 12 38 L 38 38 L 38 41 C 38 42.668484 36.668484 44 35 44 L 33 44 L 17 44 L 15 44 C 13.331516 44 12 42.668484 12 41 L 12 38 z M 17 46 C 17.416666 46 17.601893 46.120245 17.751953 46.289062 C 17.902014 46.457881 18 46.722222 18 47 C 18 47.277778 17.90201 47.542119 17.751953 47.710938 C 17.601893 47.879756 17.416666 48 17 48 C 16.583334 48 16.398107 47.879755 16.248047 47.710938 C 16.097986 47.542119 16 47.277778 16 47 C 16 46.722222 16.097986 46.457881 16.248047 46.289062 C 16.398107 46.120244 16.583334 46 17 46 z M 33 46 C 33.416666 46 33.601893 46.120245 33.751953 46.289062 C 33.902014 46.457881 34 46.722222 34 47 C 34 47.277778 33.90201 47.542119 33.751953 47.710938 C 33.601893 47.879756 33.416666 48 33 48 C 32.583334 48 32.398107 47.879755 32.248047 47.710938 C 32.097986 47.542119 32 47.277778 32 47 C 32 46.722222 32.097986 46.457881 32.248047 46.289062 C 32.398107 46.120244 32.583334 46 33 46 z"/></svg>
