<svg fill="#000000" xmlns="http://www.w3.org/2000/svg"  viewBox="0 0 80 80" width="80px" height="80px"><path d="M 29.880859 10 C 24.517274 10 19.295763 13.230742 15.425781 18.308594 C 11.555799 23.386446 9 30.357663 9 38.080078 C 9 52.103428 17.348187 63.812502 26.933594 65.908203 C 27.616125 67.161406 28.466222 68.321727 29.5 69.355469 C 33.489159 73.34449 39.318687 74.673602 45.384766 73.6875 C 51.450844 72.701398 57.812217 69.42625 63.119141 64.119141 C 68.426066 58.812031 71.699657 52.452832 72.685547 46.386719 C 73.671437 40.320606 72.342675 34.490973 68.353516 30.501953 C 64.364357 26.512933 58.532875 25.18382 52.466797 26.169922 C 51.27923 26.362973 50.080833 26.645305 48.880859 27.011719 C 45.493025 17.057482 37.87213 10 29.880859 10 z M 29.880859 12 C 36.673089 12 43.814162 18.325922 46.994141 27.681641 C 42.699646 29.31511 38.457451 32.011169 34.734375 35.734375 C 32.74956 37.719259 31.049138 39.851348 29.646484 42.060547 A 1.0001 1.0001 0 0 0 29.001953 43.166016 C 27.034275 46.534719 25.724323 50.045541 25.167969 53.46875 C 24.592148 57.011735 24.812327 60.472669 25.884766 63.535156 C 18.155713 60.826535 11 50.508672 11 38.080078 C 11 30.800493 13.42631 24.233632 17.017578 19.521484 C 20.608846 14.809337 25.329444 12 29.880859 12 z M 29.095703 15.876953 A 1.0001 1.0001 0 1 0 29.095703 17.876953 A 1.0001 1.0001 0 1 0 29.095703 15.876953 z M 27.292969 19.339844 L 26.490234 19.740234 L 26.333984 20.623047 L 26.945312 21.277344 L 27.292969 21.339844 L 28.09375 20.9375 L 28.251953 20.054688 L 27.638672 19.400391 L 27.292969 19.339844 z M 26.308594 23.121094 L 25.507812 23.521484 L 25.349609 24.404297 L 25.960938 25.058594 L 26.308594 25.121094 L 27.109375 24.71875 L 27.267578 23.837891 L 26.65625 23.183594 L 26.308594 23.121094 z M 26.226562 27.025391 L 25.425781 27.425781 L 25.267578 28.308594 L 25.878906 28.962891 L 26.226562 29.025391 L 27.027344 28.623047 L 27.185547 27.742188 L 26.572266 27.085938 L 26.226562 27.025391 z M 55.873047 27.857422 C 60.233151 27.771573 64.129293 29.105953 66.939453 31.916016 C 70.398113 35.374555 71.621385 40.476511 70.712891 46.066406 C 69.804398 51.656303 66.73672 57.67326 61.705078 62.705078 C 56.673436 67.736895 50.654318 70.806156 45.064453 71.714844 C 39.474589 72.623534 34.372722 71.399945 30.914062 67.941406 C 29.996713 67.024089 29.241478 65.988306 28.636719 64.861328 A 1.0001 1.0001 0 0 0 28.371094 64.34375 C 26.910873 61.319303 26.509666 57.673266 27.140625 53.791016 C 28.049119 48.20112 31.116796 42.180255 36.148438 37.148438 C 41.180079 32.116619 47.199198 29.051267 52.789062 28.142578 C 53.837162 27.972199 54.866869 27.877233 55.873047 27.857422 z M 27.017578 30.849609 L 26.216797 31.25 L 26.058594 32.132812 L 26.671875 32.787109 L 27.017578 32.849609 L 27.818359 32.447266 L 27.976562 31.564453 L 27.365234 30.910156 L 27.017578 30.849609 z M 28.628906 34.408203 L 27.828125 34.808594 L 27.669922 35.691406 L 28.28125 36.345703 L 28.628906 36.408203 L 29.429688 36.005859 L 29.587891 35.125 L 28.974609 34.470703 L 28.628906 34.408203 z M 64.349609 34.998047 A 1.0001 1.0001 0 1 0 64.349609 36.998047 L 64.349609 34.998047 z M 29.867188 38.089844 L 29.066406 38.490234 L 28.908203 39.373047 L 29.521484 40.027344 L 29.867188 40.089844 L 30.667969 39.6875 L 30.826172 38.806641 L 30.214844 38.152344 L 29.867188 38.089844 z M 63.496094 39.003906 L 62.695312 39.404297 L 62.537109 40.287109 L 63.148438 40.941406 L 63.496094 41.003906 L 64.296875 40.601562 L 64.455078 39.720703 L 63.84375 39.066406 L 63.496094 39.003906 z M 61.308594 42.466797 L 60.507812 42.867188 L 60.349609 43.75 L 60.962891 44.404297 L 61.308594 44.466797 L 62.111328 44.064453 L 62.267578 43.183594 L 61.65625 42.527344 L 61.308594 42.466797 z M 58.246094 45.195312 L 57.445312 45.595703 L 57.287109 46.478516 L 57.900391 47.132812 L 58.246094 47.195312 L 59.046875 46.792969 L 59.205078 45.912109 L 58.59375 45.257812 L 58.246094 45.195312 z M 54.666016 47.207031 L 53.865234 47.609375 L 53.707031 48.490234 L 54.320312 49.144531 L 54.666016 49.207031 L 55.46875 48.806641 L 55.625 47.923828 L 55.013672 47.269531 L 54.666016 47.207031 z M 50.810547 48.630859 L 50.009766 49.033203 L 49.851562 49.914062 L 50.464844 50.568359 L 50.810547 50.630859 L 51.613281 50.228516 L 51.769531 49.347656 L 51.158203 48.693359 L 50.810547 48.630859 z M 46.841797 49.710938 L 46.041016 50.111328 L 45.882812 50.994141 L 46.496094 51.648438 L 46.841797 51.710938 L 47.642578 51.308594 L 47.800781 50.425781 L 47.189453 49.771484 L 46.841797 49.710938 z M 43.007812 51.189453 L 42.207031 51.591797 L 42.048828 52.472656 L 42.662109 53.126953 L 43.007812 53.189453 L 43.810547 52.787109 L 43.966797 51.90625 L 43.355469 51.251953 L 43.007812 51.189453 z M 39.535156 53.375 L 38.734375 53.775391 L 38.576172 54.658203 L 39.1875 55.3125 L 39.535156 55.375 L 40.335938 54.972656 L 40.494141 54.089844 L 39.880859 53.435547 L 39.535156 53.375 z M 36.828125 56.445312 L 36.027344 56.847656 L 35.869141 57.728516 L 36.482422 58.384766 L 36.828125 58.445312 L 37.628906 58.044922 L 37.787109 57.162109 L 37.175781 56.507812 L 36.828125 56.445312 z M 35.345703 60.261719 L 34.544922 60.662109 L 34.386719 61.544922 L 35 62.199219 L 35.345703 62.261719 L 36.146484 61.859375 L 36.304688 60.978516 L 35.693359 60.322266 L 35.345703 60.261719 z M 35.003906 64.349609 A 1.0001 1.0001 0 1 0 35.003906 66.349609 A 1.0001 1.0001 0 1 0 35.003906 64.349609 z"/></svg>