<svg xmlns="http://www.w3.org/2000/svg"  viewBox="0 0 50 50" width="100px" height="100px" fill="#ffffff"><path d="M 11 2 A 1.0001 1.0001 0 0 0 10 3 L 10 16 A 1.0001 1.0001 0 0 0 11 17 L 39 17 A 1.0001 1.0001 0 0 0 40 16 L 40 3 A 1.0001 1.0001 0 0 0 39 2 L 11 2 z M 13.15625 4 L 25.046875 4 L 17.828125 9.5214844 L 13.15625 4 z M 28.339844 4 L 36.84375 4 L 27.535156 15 L 22.464844 15 L 19.121094 11.048828 L 28.339844 4 z M 12 5.7304688 L 19.84375 15 L 12 15 L 12 5.7304688 z M 38 5.7304688 L 38 15 L 30.15625 15 L 38 5.7304688 z M 11.001953 21 C 7.1474181 21 4.00079 24.147255 4.0019531 28.001953 L 4.0019531 29.056641 C 3.8162046 29.078329 3.6316102 29.089357 3.4433594 29.134766 A 1.0001 1.0001 0 0 0 3.4414062 29.134766 C 1.8041479 29.530099 0.51327824 30.827193 0.12695312 32.46875 C -0.41096981 34.754066 0.87424904 36.835388 2.8085938 37.667969 L 4.3378906 41.753906 C 4.7720396 42.913121 5.6145468 43.832346 6.6601562 44.394531 L 6.1953125 45.328125 C 5.7393125 46.240125 6.1094844 47.348688 7.0214844 47.804688 C 7.2864844 47.936687 7.5677031 48 7.8457031 48 C 8.5237031 48 9.1740469 47.627469 9.4980469 46.980469 L 10.482422 45 L 39.517578 45 L 40.501953 46.978516 C 40.826953 47.625516 41.476297 47.998047 42.154297 47.998047 C 42.432297 47.998047 42.713516 47.936687 42.978516 47.804688 C 43.890516 47.348687 44.260687 46.238172 43.804688 45.326172 L 43.339844 44.394531 C 44.385453 43.832346 45.227961 42.913121 45.662109 41.753906 L 47.191406 37.667969 C 49.125751 36.835388 50.41097 34.754066 49.873047 32.46875 A 1.0001 1.0001 0 0 0 49.873047 32.466797 C 49.486755 30.826682 48.195343 29.530135 46.556641 29.134766 C 46.36839 29.089358 46.183863 29.078426 45.998047 29.056641 L 45.998047 28.001953 C 45.99921 24.147255 42.852582 21 38.998047 21 L 11.001953 21 z M 11.001953 23 L 38.998047 23 C 41.771512 23 43.998884 25.226698 43.998047 28 L 43.998047 29.253906 C 42.603873 29.729802 41.495546 30.855656 41.078125 32.277344 L 41.101562 32.208984 L 40.117188 34.837891 C 38.92076 34.507623 33.234612 33 25 33 C 16.765388 33 11.079237 34.507576 9.8828125 34.837891 L 8.8984375 32.208984 L 8.921875 32.277344 C 8.5044514 30.855646 7.3962993 29.727762 6.0019531 29.251953 L 6.0019531 28 C 6.0011163 25.226698 8.2284883 23 11.001953 23 z M 4.4570312 31.001953 C 5.6958747 30.944924 6.680591 31.747275 7.0019531 32.841797 A 1.0001 1.0001 0 0 0 7.0253906 32.910156 L 8.3144531 36.351562 A 1.0001 1.0001 0 0 0 9.5332031 36.958984 C 9.5332036 36.958936 16.148148 35 25 35 C 33.851852 35 40.466797 36.958984 40.466797 36.958984 A 1.0001 1.0001 0 0 0 41.685547 36.351562 L 42.974609 32.910156 A 1.0001 1.0001 0 0 0 42.998047 32.841797 C 43.365318 31.590915 44.598483 30.720824 46.087891 31.080078 C 46.969188 31.292709 47.718073 32.043896 47.925781 32.925781 C 48.277956 34.421964 47.390146 35.658331 46.117188 36.009766 A 1.0001 1.0001 0 0 0 45.447266 36.623047 L 43.789062 41.052734 C 43.349172 42.227275 42.232847 43 40.978516 43 L 9.0214844 43 C 7.7671534 43 6.6508259 42.227274 6.2109375 41.052734 L 4.5527344 36.623047 A 1.0001 1.0001 0 0 0 3.8828125 36.009766 C 2.6098529 35.658331 1.7220439 34.421964 2.0742188 32.925781 C 2.2818935 32.043338 3.0313645 31.290791 3.9121094 31.078125 L 3.9121094 31.080078 C 4.0982853 31.035171 4.2800536 31.0101 4.4570312 31.001953 z"/></svg>
