<svg xmlns="http://www.w3.org/2000/svg"  viewBox="0 0 128 128" width="64px" height="64px" fill="#ffffff"><path d="M 22 12 A 2 2 0 0 0 20 14 L 20 59.589844 L 17.630859 60 A 2 2 0 0 0 16 62 L 16 112 A 4 4 0 0 0 20 116 L 60 116 A 2 2 0 0 0 60 112 L 20 112 L 20 70.470703 L 26.210938 82.890625 A 2 2 0 0 0 29.070312 83.689453 L 78.070312 52.689453 A 2 2 0 0 0 78.859375 50.269531 A 2 2 0 0 0 76.630859 49 L 76 49.119141 L 76 14 A 2 2 0 0 0 74 12 L 22 12 z M 24 16 L 46 16 L 46 42 L 24 42 L 24 16 z M 50 16 L 72 16 L 72 42 L 50 42 L 50 16 z M 24 46 L 46 46 L 46 54.740234 L 24 58.849609 L 24 46 z M 50 46 L 72 46 L 72 49.900391 L 50 54 L 50 46 z M 67.160156 54.869141 L 28.800781 79.130859 L 21 63.480469 L 67.160156 54.869141 z M 90.861328 55.056641 C 83.18094 55.069758 74.936875 59.085625 67 67 C 52.89 81.07 51.170078 96.199375 62.330078 107.35938 C 75.410078 120.44938 91.330625 122.53945 108.89062 115.68945 C 109.70063 115.37945 112.62023 115.87977 114.24023 114.25977 C 115.86023 112.63977 115.24023 109.94992 115.49023 109.16992 C 122.30023 90.679922 119.48961 74.479844 107.34961 62.339844 C 102.46711 57.457344 96.834963 55.046438 90.861328 55.056641 z M 90.511719 59.074219 C 92.27468 59.026685 94.048047 59.234375 95.810547 59.75 C 91.460547 69.3 84.000234 72.880156 76.490234 80.410156 C 72.000234 85.000156 66.880078 94.319375 59.830078 96.109375 C 56.400078 85.159375 65.129844 74.559609 69.839844 69.849609 C 75.421719 64.283984 82.872219 59.2802 90.511719 59.074219 z M 99.5 61.300781 A 23 23 0 0 1 104.5 65.169922 C 115.63 76.279922 118.06047 90.619062 111.73047 107.78906 A 16.39 16.39 0 0 0 111.33008 111.41016 C 110.33008 111.63016 108.74945 111.4107 107.43945 111.9707 C 90.559453 118.5407 76.720391 116.0993 65.150391 104.5293 A 22.92 22.92 0 0 1 61.470703 99.800781 C 69.740703 97.260781 75.070312 87.480234 79.320312 83.240234 C 86.760312 75.790234 94.71 71.920781 99.5 61.300781 z M 95.390625 78.603516 A 2.0080401 2.0080401 0 0 0 94 82.109375 A 26.59 26.59 0 0 1 100.78906 94.109375 A 2 2 0 0 0 104.66016 93.109375 A 30.17 30.17 0 0 0 96.669922 79.109375 A 2.0080401 2.0080401 0 0 0 95.390625 78.603516 z"/></svg>
