<svg fill="#000000" xmlns="http://www.w3.org/2000/svg"  viewBox="0 0 50 50" width="100px" height="100px"><path d="M 18 2 C 16.75 2 15.685226 2.5047556 15.001953 3.2734375 C 14.318681 4.0421194 14 5.0277779 14 6 C 14 6.9722221 14.318681 7.9578806 15.001953 8.7265625 C 15.685226 9.4952444 16.75 10 18 10 C 19.25 10 20.314774 9.4952444 20.998047 8.7265625 C 21.681319 7.9578806 22 6.9722221 22 6 C 22 5.0277779 21.681319 4.0421194 20.998047 3.2734375 C 20.314774 2.5047556 19.25 2 18 2 z M 18 4 C 18.749999 4 19.185226 4.2452444 19.501953 4.6015625 C 19.81868 4.9578806 20 5.4722221 20 6 C 20 6.5277779 19.81868 7.0421194 19.501953 7.3984375 C 19.185226 7.7547556 18.749999 8 18 8 C 17.250001 8 16.814774 7.7547556 16.498047 7.3984375 C 16.18132 7.0421194 16 6.5277779 16 6 C 16 5.4722221 16.18132 4.9578806 16.498047 4.6015625 C 16.814774 4.2452444 17.250001 4 18 4 z M 14 10 C 12.048028 10 10.554825 11.353014 9.5390625 13.078125 C 8.5233001 14.803236 7.8429425 16.998841 7.3417969 19.259766 C 6.3395057 23.781614 6.0907915 28.601506 6.0019531 29.933594 L 5.9316406 31 L 10 31 L 10 46 L 17 46 L 17 18.28125 L 19.876953 19 L 26 19 C 27.64497 19 29 17.64497 29 16 C 29 14.35503 27.64497 13 26 13 L 20.236328 13 L 14.236328 10 L 14 10 z M 13.861328 12.048828 L 19.763672 15 L 26 15 C 26.56503 15 27 15.43497 27 16 C 27 16.56503 26.56503 17 26 17 L 20.123047 17 L 15 15.71875 L 15 44 L 12 44 L 12 29 L 8.0820312 29 C 8.2068666 27.095688 8.4665513 23.430563 9.2949219 19.693359 C 9.7710263 17.545409 10.430919 15.502779 11.261719 14.091797 C 12.052881 12.748133 12.880142 12.110849 13.861328 12.048828 z M 34 19 C 32.35503 19 31 20.35503 31 22 L 31 25 L 29 25 L 29 24 C 29 22.35503 27.64497 21 26 21 L 23 21 C 21.35503 21 20 22.35503 20 24 C 20 25.64497 21.35503 27 23 27 L 23 28 C 23 29.64497 24.35503 31 26 31 L 33 31 C 34.194226 31 35.163621 30.754247 35.886719 30.216797 C 36.609816 29.679347 37 28.822485 37 28 L 37 27 L 37 22 C 37 20.35503 35.64497 19 34 19 z M 34 21 C 34.56503 21 35 21.43497 35 22 L 35 27 L 35 28 C 35 28.282515 34.94401 28.425028 34.693359 28.611328 C 34.442707 28.797628 33.910774 29 33 29 L 26 29 C 25.43497 29 25 28.56503 25 28 L 25 25 L 23 25 C 22.43497 25 22 24.56503 22 24 C 22 23.43497 22.43497 23 23 23 L 26 23 C 26.56503 23 27 23.43497 27 24 L 27 27 L 33 27 L 33 22 C 33 21.43497 33.43497 21 34 21 z M 41.5 24 C 40.416667 24 39.476892 24.442256 38.876953 25.117188 C 38.277014 25.792119 38 26.652778 38 27.5 C 38 28.347222 38.277014 29.207882 38.876953 29.882812 C 39.476892 30.557744 40.416667 31 41.5 31 C 42.583333 31 43.523108 30.557744 44.123047 29.882812 C 44.722986 29.207881 45 28.347222 45 27.5 C 45 26.652778 44.722986 25.792118 44.123047 25.117188 C 43.523108 24.442256 42.583333 24 41.5 24 z M 41.5 26 C 42.083333 26 42.393559 26.182744 42.626953 26.445312 C 42.860347 26.707881 43 27.097222 43 27.5 C 43 27.902778 42.860347 28.292118 42.626953 28.554688 C 42.393559 28.817256 42.083333 29 41.5 29 C 40.916667 29 40.606441 28.817256 40.373047 28.554688 C 40.139653 28.292119 40 27.902778 40 27.5 C 40 27.097222 40.139653 26.707882 40.373047 26.445312 C 40.606441 26.182744 40.916667 26 41.5 26 z M 23 33 L 23 35 L 45 35 L 45 33 L 23 33 z"/></svg>