<?xml version="1.0"?><svg fill="#ffffff" xmlns="http://www.w3.org/2000/svg"  viewBox="0 0 80 80" width="80px" height="80px">    <path d="M 11.984375 15.986328 A 1.0001 1.0001 0 0 0 11.839844 16 L 7 16 L 7 17 L 7 31 C 7 33.328786 8.2430838 35.29095 10 36.5625 L 10 66 C 10 68.197334 11.802666 70 14 70 C 16.197334 70 18 68.197334 18 66 L 18 53.582031 C 21.704011 62.06212 30.163472 68 40 68 C 49.836528 68 58.295989 62.06212 62 53.582031 L 62 65.830078 C 62 67.953257 63.594135 69.87929 65.787109 69.994141 C 68.073786 70.113101 70 68.267895 70 66 L 70 45.617188 L 74 43.617188 L 74 27 C 74 20.936593 69.063407 16 63 16 L 63 18 L 62 17 L 62 34.417969 C 58.295989 25.93788 49.836528 20 40 20 C 32.269778 20 25.391077 23.668062 21 29.353516 L 21 16 L 16.154297 16 A 1.0001 1.0001 0 0 0 15.984375 15.986328 A 1.0001 1.0001 0 0 0 15.839844 16 L 12.154297 16 A 1.0001 1.0001 0 0 0 11.984375 15.986328 z M 9 18 L 11 18 L 11 28 A 1.0001 1.0001 0 1 0 13 28 L 13 18 L 15 18 L 15 28 A 1.0001 1.0001 0 1 0 17 28 L 17 18 L 19 18 L 19 31 C 19 32.857237 17.992774 34.460365 16.498047 35.326172 L 16 35.615234 L 16 66 C 16 67.116666 15.116666 68 14 68 C 12.883334 68 12 67.116666 12 66 L 12 35.615234 L 11.501953 35.326172 C 10.007226 34.460365 9 32.857237 9 31 L 9 18 z M 64 18.201172 C 68.4853 18.718614 72 22.372525 72 27 L 72 42.382812 L 68 44.382812 L 68 66 C 68 67.152105 67.063948 68.059087 65.890625 67.998047 C 64.837599 67.942898 64 66.954899 64 65.830078 L 64 18.201172 z M 40 22 C 52.162109 22 62 31.837891 62 44 C 62 56.162109 52.162109 66 40 66 C 27.837891 66 18 56.162109 18 44 C 18 31.837891 27.837891 22 40 22 z M 40 30 A 1 1 0 0 0 39 31 A 1 1 0 0 0 40 32 A 1 1 0 0 0 41 31 A 1 1 0 0 0 40 30 z M 35.033203 30.988281 A 1 1 0 0 0 34.642578 31.064453 A 1 1 0 0 0 34.101562 32.371094 A 1 1 0 0 0 35.408203 32.912109 A 1 1 0 0 0 35.949219 31.605469 A 1 1 0 0 0 35.033203 30.988281 z M 44.998047 30.988281 A 1 1 0 0 0 44.050781 31.605469 A 1 1 0 0 0 44.591797 32.912109 A 1 1 0 0 0 45.898438 32.371094 A 1 1 0 0 0 45.357422 31.064453 A 1 1 0 0 0 44.998047 30.988281 z M 30.822266 33.806641 A 1 1 0 0 0 30.101562 34.099609 A 1 1 0 0 0 30.101562 35.513672 A 1 1 0 0 0 31.515625 35.513672 A 1 1 0 0 0 31.515625 34.099609 A 1 1 0 0 0 30.822266 33.806641 z M 49.207031 33.808594 A 1 1 0 0 0 48.484375 34.101562 A 1 1 0 0 0 48.484375 35.515625 A 1 1 0 0 0 49.898438 35.515625 A 1 1 0 0 0 49.898438 34.101562 A 1 1 0 0 0 49.207031 33.808594 z M 52.017578 38.023438 A 1 1 0 0 0 51.626953 38.099609 A 1 1 0 0 0 51.085938 39.40625 A 1 1 0 0 0 52.392578 39.947266 A 1 1 0 0 0 52.933594 38.640625 A 1 1 0 0 0 52.017578 38.023438 z M 28.013672 38.025391 A 1 1 0 0 0 27.066406 38.642578 A 1 1 0 0 0 27.607422 39.949219 A 1 1 0 0 0 28.914062 39.40625 A 1 1 0 0 0 28.373047 38.099609 A 1 1 0 0 0 28.013672 38.025391 z M 27 43 A 1 1 0 0 0 26 44 A 1 1 0 0 0 27 45 A 1 1 0 0 0 28 44 A 1 1 0 0 0 27 43 z M 27.998047 47.974609 A 1 1 0 0 0 27.607422 48.050781 A 1 1 0 0 0 27.066406 49.357422 A 1 1 0 0 0 28.373047 49.898438 A 1 1 0 0 0 28.914062 48.591797 A 1 1 0 0 0 27.998047 47.974609 z M 30.822266 52.191406 A 1 1 0 0 0 30.099609 52.484375 A 1 1 0 0 0 30.099609 53.898438 A 1 1 0 0 0 31.513672 53.898438 A 1 1 0 0 0 31.513672 52.484375 A 1 1 0 0 0 30.822266 52.191406 z M 35.046875 55.009766 A 1 1 0 0 0 34.101562 55.626953 A 1 1 0 0 0 34.642578 56.933594 A 1 1 0 0 0 35.949219 56.392578 A 1 1 0 0 0 35.408203 55.085938 A 1 1 0 0 0 35.046875 55.009766 z"/></svg>
