<svg xmlns="http://www.w3.org/2000/svg" xmlns:xlink="http://www.w3.org/1999/xlink" width="125" zoomAndPan="magnify" viewBox="0 0 93.75 93.749997" height="125" preserveAspectRatio="xMidYMid meet" version="1.0"><defs><clipPath id="20d1599f48"><path d="M 0 0 L 93.5 0 L 93.5 93.5 L 0 93.5 Z M 0 0 " clip-rule="nonzero"/></clipPath><clipPath id="31514d8ea0"><path d="M 58 30 L 85 30 L 85 80 L 58 80 Z M 58 30 " clip-rule="nonzero"/></clipPath><clipPath id="c01e6a71ee"><path d="M 44.484375 41.28125 L 85.023438 27.710938 L 98.59375 68.25 L 58.054688 81.820312 Z M 44.484375 41.28125 " clip-rule="nonzero"/></clipPath><clipPath id="e02d31c88c"><path d="M 44.484375 41.28125 L 85.023438 27.710938 L 98.59375 68.25 L 58.054688 81.820312 Z M 44.484375 41.28125 " clip-rule="nonzero"/></clipPath><clipPath id="b326e3f31b"><path d="M 44.484375 41.28125 L 85.023438 27.710938 L 98.59375 68.25 L 58.054688 81.820312 Z M 44.484375 41.28125 " clip-rule="nonzero"/></clipPath><clipPath id="052c5c3aa3"><path d="M 12.375 26 L 58.125 26 L 58.125 62 L 12.375 62 Z M 12.375 26 " clip-rule="nonzero"/></clipPath></defs><g clip-path="url(#31514d8ea0)"><g clip-path="url(#c01e6a71ee)"><g clip-path="url(#e02d31c88c)"><g clip-path="url(#b326e3f31b)"><path fill="#ffffff" d="M 81.335938 30.746094 C 80.933594 30.925781 80.546875 31.1875 80.167969 31.476562 C 79.242188 32.183594 78.320312 33.183594 77.386719 34.265625 L 76.769531 33.9375 C 76.636719 33.875 76.488281 33.84375 76.34375 33.855469 C 76.34375 33.855469 76.039062 33.878906 75.515625 33.992188 C 74.996094 34.101562 74.273438 34.320312 73.480469 34.726562 C 71.898438 35.546875 69.960938 37.136719 68.453125 40.160156 C 66.988281 43.101562 66.335938 45.457031 65.976562 47.242188 C 65.617188 49.027344 65.5 50.25 65.207031 50.910156 C 64.734375 51.964844 63.636719 51.859375 63.636719 51.859375 C 63.164062 51.824219 62.75 52.175781 62.714844 52.644531 C 62.679688 53.117188 63.03125 53.53125 63.5 53.566406 C 63.5 53.566406 65.855469 53.679688 66.769531 51.625 C 67.269531 50.507812 67.328125 49.265625 67.667969 47.578125 C 68.007812 45.890625 68.589844 43.742188 69.984375 40.941406 C 71.339844 38.222656 72.984375 36.90625 74.269531 36.238281 C 75.464844 35.621094 76.152344 35.632812 76.261719 35.628906 L 76.363281 35.679688 C 75.003906 37.75 71.855469 42.730469 68.769531 48.929688 C 64.6875 57.113281 60.503906 67.839844 60.503906 67.839844 C 60.433594 68.03125 60.433594 68.242188 60.503906 68.433594 C 59.734375 71.191406 59.5 73.347656 59.488281 74.828125 C 59.484375 75.777344 59.542969 76.386719 59.609375 76.789062 L 58.878906 78.21875 C 58.664062 78.648438 58.835938 79.167969 59.269531 79.382812 C 59.699219 79.597656 60.21875 79.425781 60.433594 78.992188 L 61.132812 77.546875 C 61.496094 77.359375 62.015625 77.039062 62.769531 76.464844 C 63.949219 75.5625 65.550781 74.082031 67.292969 71.792969 C 67.476562 71.734375 67.632812 71.609375 67.742188 71.449219 C 67.742188 71.449219 73.785156 61.648438 77.867188 53.464844 C 81.78125 45.605469 84.03125 38.933594 84.207031 38.40625 C 84.242188 38.347656 84.269531 38.28125 84.285156 38.210938 C 84.289062 38.199219 84.292969 38.191406 84.300781 38.179688 C 84.308594 38.167969 84.3125 38.15625 84.316406 38.144531 C 84.332031 38.085938 84.34375 38.027344 84.34375 37.96875 C 84.667969 36.492188 84.929688 35.078125 84.9375 33.851562 C 84.945312 33.214844 84.886719 32.625 84.683594 32.078125 C 84.476562 31.53125 84.085938 31 83.523438 30.71875 C 82.960938 30.4375 82.300781 30.445312 81.738281 30.613281 C 81.597656 30.652344 81.46875 30.6875 81.335938 30.746094 Z M 82.230469 32.25 C 82.492188 32.171875 82.605469 32.203125 82.746094 32.273438 C 82.890625 32.347656 82.980469 32.417969 83.078125 32.671875 C 83.171875 32.925781 83.242188 33.320312 83.238281 33.828125 C 83.234375 34.589844 83.050781 35.59375 82.835938 36.667969 L 79.183594 34.847656 C 79.914062 34.03125 80.609375 33.28125 81.210938 32.816406 C 81.613281 32.507812 81.972656 32.328125 82.230469 32.25 Z M 78.097656 36.226562 L 82.402344 38.390625 C 82.074219 39.363281 80.046875 45.273438 76.34375 52.703125 C 72.648438 60.113281 67.457031 68.613281 66.605469 69.996094 L 62.34375 67.871094 C 62.9375 66.359375 66.597656 57.097656 70.289062 49.6875 C 74.003906 42.234375 77.535156 37.050781 78.097656 36.226562 Z M 61.796875 69.183594 L 65.890625 71.222656 C 64.34375 73.195312 62.921875 74.539062 61.90625 75.316406 C 61.320312 75.765625 61.304688 75.734375 61.003906 75.898438 C 60.957031 75.558594 60.921875 75.566406 60.925781 74.828125 C 60.933594 73.550781 61.15625 71.605469 61.796875 69.183594 Z M 61.796875 69.183594 " fill-opacity="1" fill-rule="nonzero"/></g></g></g></g><g clip-path="url(#052c5c3aa3)"><path fill="#ffffff" d="M 16.949219 26.46875 C 16.699219 26.46875 16.480469 26.558594 16.304688 26.738281 C 16.125 26.914062 16.035156 27.132812 16.035156 27.382812 L 16.035156 30.128906 L 13.289062 30.128906 C 13.039062 30.128906 12.820312 30.21875 12.644531 30.398438 C 12.464844 30.574219 12.375 30.792969 12.375 31.042969 L 12.375 60.324219 C 12.375 60.578125 12.464844 60.792969 12.644531 60.972656 C 12.820312 61.148438 13.039062 61.238281 13.289062 61.238281 L 57.210938 61.238281 C 57.460938 61.238281 57.679688 61.148438 57.855469 60.972656 C 58.035156 60.792969 58.125 60.578125 58.125 60.324219 L 58.125 31.042969 C 58.125 30.792969 58.035156 30.574219 57.855469 30.398438 C 57.679688 30.21875 57.460938 30.128906 57.210938 30.128906 L 54.464844 30.128906 L 54.464844 27.382812 C 54.464844 27.132812 54.375 26.914062 54.195312 26.738281 C 54.019531 26.558594 53.800781 26.46875 53.550781 26.46875 C 44.429688 26.46875 35.769531 29.878906 35.25 30.085938 C 34.730469 29.878906 26.070312 26.46875 16.949219 26.46875 Z M 17.863281 28.378906 C 26.460938 28.609375 34.910156 31.894531 34.910156 31.894531 C 35.136719 31.984375 35.363281 31.984375 35.589844 31.894531 C 35.589844 31.894531 44.039062 28.609375 52.636719 28.378906 L 52.636719 30.890625 C 52.617188 30.988281 52.617188 31.089844 52.636719 31.1875 L 52.636719 55.824219 C 43.847656 56.050781 35.75 59.167969 35.25 59.367188 C 34.75 59.167969 26.652344 56.050781 17.863281 55.824219 L 17.863281 31.199219 C 17.882812 31.097656 17.882812 31 17.863281 30.898438 Z M 14.203125 31.960938 L 16.035156 31.960938 L 16.035156 56.664062 C 16.035156 56.917969 16.125 57.132812 16.304688 57.3125 C 16.480469 57.488281 16.699219 57.578125 16.949219 57.578125 C 21.460938 57.578125 25.996094 58.5 29.386719 59.410156 L 14.203125 59.410156 Z M 54.464844 31.960938 L 56.296875 31.960938 L 56.296875 59.410156 L 41.113281 59.410156 C 44.503906 58.5 49.039062 57.578125 53.550781 57.578125 C 53.800781 57.578125 54.019531 57.488281 54.195312 57.3125 C 54.375 57.132812 54.464844 56.917969 54.464844 56.664062 Z M 35.234375 36.523438 C 34.984375 36.527344 34.769531 36.617188 34.59375 36.800781 C 34.417969 36.980469 34.332031 37.195312 34.335938 37.449219 L 34.335938 40.195312 C 34.332031 40.449219 34.417969 40.667969 34.597656 40.847656 C 34.777344 41.03125 34.996094 41.121094 35.25 41.121094 C 35.503906 41.121094 35.722656 41.03125 35.902344 40.847656 C 36.082031 40.667969 36.167969 40.449219 36.164062 40.195312 L 36.164062 37.449219 C 36.167969 37.324219 36.144531 37.207031 36.097656 37.089844 C 36.050781 36.976562 35.984375 36.875 35.894531 36.789062 C 35.808594 36.703125 35.707031 36.632812 35.59375 36.589844 C 35.476562 36.542969 35.359375 36.519531 35.234375 36.523438 Z M 35.234375 49.332031 C 34.984375 49.335938 34.769531 49.429688 34.59375 49.609375 C 34.417969 49.789062 34.332031 50.007812 34.335938 50.257812 L 34.335938 53.003906 C 34.332031 53.257812 34.417969 53.476562 34.597656 53.660156 C 34.777344 53.839844 34.996094 53.933594 35.25 53.933594 C 35.503906 53.933594 35.722656 53.839844 35.902344 53.660156 C 36.082031 53.476562 36.167969 53.257812 36.164062 53.003906 L 36.164062 50.257812 C 36.167969 50.136719 36.144531 50.015625 36.097656 49.902344 C 36.050781 49.789062 35.984375 49.6875 35.894531 49.597656 C 35.808594 49.511719 35.707031 49.445312 35.59375 49.398438 C 35.476562 49.351562 35.359375 49.328125 35.234375 49.332031 Z M 35.234375 49.332031 " fill-opacity="1" fill-rule="nonzero"/></g></svg>
