<svg xmlns="http://www.w3.org/2000/svg"  viewBox="0 0 50 50" width="100px" height="100px" fill="#ffffff"><path d="M 25 1 C 13.440571 1 4 9.9381128 4 21 A 1.0001 1.0001 0 1 0 4 23 L 6 23 A 1.0001 1.0001 0 1 0 6 21 C 6 20.65263 6.0342137 20.313277 6.0546875 19.970703 A 1.0001 1.0001 0 0 0 7.3828125 19.173828 C 7.7132384 17.307868 9.2214068 14.177222 12.076172 11.617188 C 14.930937 9.0571517 19.100082 7 24.898438 7 C 30.696793 7 34.865938 9.0571517 37.720703 11.617188 C 40.575468 14.177222 42.083638 17.307868 42.414062 19.173828 A 1.0001 1.0001 0 0 0 43.939453 19.875 C 43.963882 20.248923 44 20.620318 44 21 A 1.0001 1.0001 0 1 0 44 23 L 46 23 A 1.0001 1.0001 0 1 0 46 21 C 46 9.9381128 36.559429 1 25 1 z M 25 3 C 33.146474 3 40.036781 7.8401459 42.75 14.621094 C 41.871215 13.112622 40.648883 11.556764 39.056641 10.128906 C 35.872156 7.2731918 31.175082 5 24.898438 5 C 18.621793 5 13.924719 7.2731918 10.740234 10.128906 C 9.4871773 11.252596 8.4717267 12.455403 7.6640625 13.652344 C 10.625047 7.3833356 17.246059 3 25 3 z M 4 25 L 4 27.804688 L 4.0644531 27.804688 C 3.4676349 28.370193 3 29.299918 3 30.572266 C 3 31.597245 3.2867566 33.078017 3.7539062 34.902344 C 4.221056 36.726671 4.879952 38.835523 5.6621094 40.855469 C 6.4442668 42.875414 7.3428131 44.801328 8.3378906 46.287109 C 9.3329681 47.77289 10.431033 49 12 49 C 13.277372 49 14.196215 48.208852 14.664062 47.396484 L 14.664062 47.394531 C 14.707978 47.318405 14.728611 47.25487 14.761719 47.183594 C 15.173684 47.310246 15.631662 47.369141 16.123047 47.369141 C 16.711477 47.369141 17.290905 47.202509 17.736328 46.857422 C 18.181751 46.512334 18.46113 46.028363 18.617188 45.533203 C 18.929302 44.542884 18.853423 43.444015 18.652344 42.242188 C 18.250178 39.83853 17.230157 37.019167 16.404297 34.833984 C 15.576712 32.642702 14.835254 30.575433 13.947266 28.962891 C 13.503271 28.156619 13.023736 27.454971 12.417969 26.914062 C 11.812198 26.373108 11.032089 26 10.179688 26 C 9.0952141 26 8.1182372 26.469371 7.5761719 27.257812 C 7.5537231 27.290465 7.542437 27.327973 7.5214844 27.361328 C 7.1504794 27.181517 6.6506716 27 6 27 L 6 25 L 4 25 z M 44 25 L 44 27 C 43.349328 27 42.849521 27.181517 42.478516 27.361328 C 42.457563 27.327973 42.446277 27.290465 42.423828 27.257812 C 41.881759 26.469418 40.904785 26 39.820312 26 C 38.967911 26 38.187798 26.373154 37.582031 26.914062 C 36.976264 27.454971 36.496729 28.156619 36.052734 28.962891 C 35.164746 30.575433 34.423288 32.642702 33.595703 34.833984 C 32.769843 37.019167 31.749822 39.838531 31.347656 42.242188 C 31.146573 43.444015 31.070694 44.542884 31.382812 45.533203 C 31.538871 46.028363 31.818249 46.512334 32.263672 46.857422 C 32.709095 47.202509 33.288523 47.369141 33.876953 47.369141 C 34.367633 47.369141 34.82482 47.309866 35.236328 47.183594 C 35.269653 47.255551 35.291483 47.31958 35.335938 47.396484 C 35.803833 48.208851 36.722628 49 38 49 C 39.568967 49 40.667032 47.77289 41.662109 46.287109 C 42.657187 44.801328 43.555733 42.875414 44.337891 40.855469 C 45.120048 38.835523 45.778944 36.726671 46.246094 34.902344 C 46.713243 33.078017 47 31.597245 47 30.572266 C 47 29.299918 46.532365 28.370193 45.935547 27.804688 L 46 27.804688 L 46 25 L 44 25 z M 10.179688 28 C 10.487785 28 10.740001 28.0991 11.083984 28.40625 C 11.427967 28.713404 11.814807 29.236756 12.195312 29.927734 C 12.956324 31.309692 13.699788 33.334298 14.533203 35.541016 C 15.348343 37.697833 16.328102 40.470922 16.679688 42.572266 C 16.85548 43.622937 16.843771 44.503959 16.708984 44.931641 C 16.641584 45.145481 16.57094 45.229509 16.511719 45.275391 C 16.452499 45.321271 16.370617 45.369141 16.123047 45.369141 C 15.406219 45.369141 15.211509 45.271151 15.029297 45.109375 C 14.847085 44.947595 14.604444 44.539547 14.269531 43.798828 C 13.631436 42.387566 12.501524 39.206158 11.548828 36.644531 C 11.076652 35.374946 10.519213 33.843788 10.050781 32.503906 C 9.5826323 31.164831 9.1947502 29.963382 9.1035156 29.568359 L 9.1035156 29.566406 C 8.9772248 29.015864 9.0689306 28.617062 9.2246094 28.390625 C 9.380544 28.163816 9.6051599 28 10.179688 28 z M 39.820312 28 C 40.394841 28 40.619456 28.163816 40.775391 28.390625 C 40.931325 28.617434 41.023702 29.016357 40.896484 29.568359 C 40.805254 29.963382 40.417368 31.164831 39.949219 32.503906 C 39.480787 33.843788 38.923344 35.374946 38.451172 36.644531 C 37.498556 39.205943 36.368061 42.386617 35.730469 43.798828 C 35.395556 44.539547 35.152915 44.947595 34.970703 45.109375 C 34.788491 45.271155 34.593781 45.369141 33.876953 45.369141 C 33.629383 45.369141 33.547503 45.321271 33.488281 45.275391 C 33.429061 45.229511 33.358411 45.145481 33.291016 44.931641 C 33.156225 44.503959 33.144517 43.622937 33.320312 42.572266 C 33.671898 40.470922 34.651657 37.697833 35.466797 35.541016 C 36.300212 33.334298 37.043675 31.309692 37.804688 29.927734 C 38.185192 29.236756 38.572033 28.713404 38.916016 28.40625 C 39.259995 28.099096 39.512215 28 39.820312 28 z M 6 29 C 6.3937931 29 6.5424075 29.07528 6.7597656 29.197266 C 6.8375918 29.240943 6.9515123 29.318694 7.0644531 29.390625 C 7.0812771 29.598489 7.1064333 29.807944 7.1542969 30.015625 A 1.0001 1.0001 0 0 0 7.1542969 30.017578 C 7.3073647 30.68129 7.6870406 31.805195 8.1621094 33.164062 C 8.6371781 34.522931 9.1980002 36.062382 9.6738281 37.341797 C 10.617132 39.87817 11.715361 43.002356 12.447266 44.621094 C 12.660043 45.091689 12.862167 45.518377 13.117188 45.90625 C 13.107658 45.936044 13.088289 45.97812 13.080078 46.003906 C 13.015568 46.20648 12.977924 46.316415 12.931641 46.396484 C 12.77333 46.671761 12.374023 47 12 47 C 11.693967 47 10.854532 46.452672 9.9980469 45.173828 C 9.1415619 43.894984 8.2744832 42.067367 7.5253906 40.132812 C 6.776298 38.198259 6.1383191 36.151548 5.6914062 34.40625 C 5.2444934 32.660952 5 31.157286 5 30.572266 C 5 29.609296 5.2648137 29.351041 5.4824219 29.189453 C 5.7000301 29.027865 6.041053 29 6 29 z M 44 29 C 43.95895 29 44.29997 29.02786 44.517578 29.189453 C 44.735186 29.351041 45 29.609296 45 30.572266 C 45 31.157286 44.755507 32.660952 44.308594 34.40625 C 43.861681 36.151548 43.223702 38.198259 42.474609 40.132812 C 41.725517 42.067368 40.858438 43.894984 40.001953 45.173828 C 39.145468 46.452672 38.306033 47 38 47 C 37.625977 47 37.226717 46.671713 37.068359 46.396484 C 37.022079 46.316414 36.984429 46.20648 36.919922 46.003906 C 36.91171 45.97812 36.892342 45.936044 36.882812 45.90625 C 37.137833 45.518377 37.339957 45.091689 37.552734 44.621094 C 38.283142 43.003305 39.382788 39.878385 40.326172 37.341797 C 40.802 36.062382 41.362822 34.522931 41.837891 33.164062 C 42.312959 31.805195 42.692635 30.68129 42.845703 30.017578 A 1.0001 1.0001 0 0 0 42.845703 30.015625 C 42.893567 29.807944 42.918723 29.598489 42.935547 29.390625 C 43.048488 29.318694 43.162408 29.240943 43.240234 29.197266 C 43.457593 29.075281 43.606207 29 44 29 z"/></svg>
