<svg xmlns="http://www.w3.org/2000/svg"  viewBox="0 0 50 50" width="100px" height="100px" fill="#ffffff"><path d="M 23.8125 2 C 23.609375 2.035156 23.425781 2.136719 23.28125 2.28125 C 23.234375 2.328125 23.191406 2.382813 23.15625 2.4375 L 12.875 12.6875 C 12.789063 12.757813 12.714844 12.84375 12.65625 12.9375 L 2.5 23.09375 C 2.324219 23.195313 2.179688 23.347656 2.09375 23.53125 C 2.082031 23.5625 2.070313 23.59375 2.0625 23.625 C 1.980469 23.8125 1.960938 24.019531 2 24.21875 L 2 42.8125 C 1.96875 42.980469 1.980469 43.152344 2.03125 43.3125 C 2.039063 43.332031 2.050781 43.355469 2.0625 43.375 C 2.0625 43.386719 2.0625 43.394531 2.0625 43.40625 C 2.082031 43.429688 2.101563 43.449219 2.125 43.46875 C 2.148438 43.535156 2.179688 43.597656 2.21875 43.65625 C 2.25 43.679688 2.28125 43.699219 2.3125 43.71875 C 2.3125 43.730469 2.3125 43.738281 2.3125 43.75 C 2.332031 43.761719 2.355469 43.773438 2.375 43.78125 C 2.402344 43.816406 2.433594 43.847656 2.46875 43.875 C 2.488281 43.886719 2.511719 43.898438 2.53125 43.90625 C 2.542969 43.90625 2.550781 43.90625 2.5625 43.90625 C 2.582031 43.917969 2.605469 43.929688 2.625 43.9375 C 2.636719 43.9375 2.644531 43.9375 2.65625 43.9375 C 2.675781 43.949219 2.699219 43.960938 2.71875 43.96875 C 2.730469 43.96875 2.738281 43.96875 2.75 43.96875 C 2.769531 43.980469 2.792969 43.992188 2.8125 44 C 2.824219 44 2.832031 44 2.84375 44 C 2.863281 44 2.886719 44 2.90625 44 C 2.917969 44 2.925781 44 2.9375 44 L 46.5 47.9375 C 46.761719 48.101563 47.085938 48.136719 47.375 48.03125 C 47.460938 48.011719 47.546875 47.980469 47.625 47.9375 C 47.648438 47.917969 47.667969 47.898438 47.6875 47.875 C 47.707031 47.867188 47.730469 47.855469 47.75 47.84375 C 47.785156 47.804688 47.816406 47.761719 47.84375 47.71875 C 47.855469 47.707031 47.863281 47.699219 47.875 47.6875 C 47.886719 47.675781 47.894531 47.667969 47.90625 47.65625 C 47.917969 47.644531 47.925781 47.636719 47.9375 47.625 C 47.960938 47.574219 47.984375 47.523438 48 47.46875 C 48.011719 47.457031 48.019531 47.449219 48.03125 47.4375 C 48.03125 47.417969 48.03125 47.394531 48.03125 47.375 C 48.125 47.109375 48.105469 46.8125 47.96875 46.5625 L 44.03125 3.09375 C 44.074219 2.640625 43.804688 2.21875 43.375 2.0625 C 43.355469 2.050781 43.332031 2.039063 43.3125 2.03125 C 43.300781 2.03125 43.292969 2.03125 43.28125 2.03125 C 43.261719 2.019531 43.238281 2.007813 43.21875 2 C 43.207031 2 43.199219 2 43.1875 2 C 43.167969 2 43.144531 2 43.125 2 C 43.113281 2 43.105469 2 43.09375 2 C 43.074219 2 43.050781 2 43.03125 2 C 43.019531 2 43.011719 2 43 2 L 24.09375 2 C 24.0625 2 24.03125 2 24 2 C 23.988281 2 23.980469 2 23.96875 2 C 23.949219 2 23.925781 2 23.90625 2 C 23.875 2 23.84375 2 23.8125 2 Z M 25.65625 4 L 40.5625 4 L 30.75 13.8125 Z M 23.75 4.6875 L 28.78125 14.28125 L 15.6875 12.75 Z M 42.21875 5.21875 L 45.53125 42.03125 L 31.75 15.65625 Z M 14.65625 14.65625 L 28.3125 16.25 L 16.25 28.3125 Z M 12.75 15.6875 L 14.28125 28.75 L 4.6875 23.75 Z M 30.28125 17.125 L 44.65625 44.65625 L 17.15625 30.28125 Z M 4 25.65625 L 13.8125 30.75 L 4 40.5625 Z M 15.6875 31.75 L 42.03125 45.53125 L 5.21875 42.21875 Z"/></svg>
