<svg fill="#000000" xmlns="http://www.w3.org/2000/svg"  viewBox="0 0 50 50" width="100px" height="100px"><path d="M 15 3 C 11.171875 3 8 5.996094 8 9.71875 L 8 11.53125 C 7.867188 11.808594 7.867188 12.128906 8 12.40625 L 8 26.53125 C 7.867188 26.808594 7.867188 27.128906 8 27.40625 L 8 36.28125 C 8 39.285156 10.066406 41.824219 12.875 42.6875 L 9.28125 46.28125 C 8.882813 46.679688 8.882813 47.320313 9.28125 47.71875 C 9.679688 48.117188 10.320313 48.117188 10.71875 47.71875 L 15.4375 43 L 34.5625 43 L 39.28125 47.71875 C 39.679688 48.117188 40.320313 48.117188 40.71875 47.71875 C 41.117188 47.320313 41.117188 46.679688 40.71875 46.28125 L 37.125 42.6875 C 39.933594 41.824219 42 39.285156 42 36.28125 L 42 27.1875 C 42.027344 27.054688 42.027344 26.914063 42 26.78125 L 42 12.1875 C 42.027344 12.054688 42.027344 11.914063 42 11.78125 L 42 9.71875 C 42 5.996094 38.828125 3 35 3 Z M 15 5 L 35 5 C 37.796875 5 40 7.132813 40 9.71875 L 40 11 L 25.21875 11 C 25.117188 10.972656 25.011719 10.960938 24.90625 10.96875 C 24.875 10.976563 24.84375 10.988281 24.8125 11 L 10 11 L 10 9.71875 C 10 7.132813 12.203125 5 15 5 Z M 16.71875 7 C 16.167969 7.078125 15.78125 7.589844 15.859375 8.140625 C 15.9375 8.691406 16.449219 9.078125 17 9 L 33 9 C 33.359375 9.003906 33.695313 8.816406 33.878906 8.503906 C 34.058594 8.191406 34.058594 7.808594 33.878906 7.496094 C 33.695313 7.183594 33.359375 6.996094 33 7 L 17 7 C 16.96875 7 16.9375 7 16.90625 7 C 16.875 7 16.84375 7 16.8125 7 C 16.78125 7 16.75 7 16.71875 7 Z M 10 13 L 24 13 L 24 26 L 10 26 Z M 26 13 L 40 13 L 40 26 L 26 26 Z M 10 28 L 40 28 L 40 36.28125 C 40 38.808594 37.894531 40.90625 35.1875 41 C 35.175781 41 35.167969 41 35.15625 41 C 35.042969 40.980469 34.925781 40.980469 34.8125 41 L 15.03125 41 C 15.019531 41 15.011719 41 15 41 C 12.203125 41 10 38.867188 10 36.28125 Z M 16 30 C 13.800781 30 12 31.800781 12 34 C 12 36.199219 13.800781 38 16 38 C 18.199219 38 20 36.199219 20 34 C 20 31.800781 18.199219 30 16 30 Z M 34 30 C 31.800781 30 30 31.800781 30 34 C 30 36.199219 31.800781 38 34 38 C 36.199219 38 38 36.199219 38 34 C 38 31.800781 36.199219 30 34 30 Z M 16 32 C 17.117188 32 18 32.882813 18 34 C 18 35.117188 17.117188 36 16 36 C 14.882813 36 14 35.117188 14 34 C 14 32.882813 14.882813 32 16 32 Z M 34 32 C 35.117188 32 36 32.882813 36 34 C 36 35.117188 35.117188 36 34 36 C 32.882813 36 32 35.117188 32 34 C 32 32.882813 32.882813 32 34 32 Z"/></svg>