<svg xmlns="http://www.w3.org/2000/svg" xmlns:xlink="http://www.w3.org/1999/xlink" width="125" zoomAndPan="magnify" viewBox="0 0 93.75 93.749997" height="125" preserveAspectRatio="xMidYMid meet" version="1.0"><defs><clipPath id="8ee992a406"><path d="M 0 0 L 93.5 0 L 93.5 93.5 L 0 93.5 Z M 0 0 " clip-rule="nonzero"/></clipPath></defs><path fill="#ffffff" d="M 17.355469 23.75 C 16.917969 23.8125 16.570312 24.15625 16.507812 24.597656 L 15.503906 31.632812 C 15.488281 31.769531 15.496094 31.90625 15.535156 32.039062 C 11.222656 35.542969 8.46875 40.882812 8.46875 46.863281 C 8.46875 52.832031 11.210938 58.15625 15.503906 61.65625 C 15.472656 61.800781 15.472656 61.949219 15.503906 62.097656 L 16.507812 69.132812 C 16.59375 69.683594 17.117188 70.066406 17.671875 69.980469 C 18.222656 69.894531 18.605469 69.371094 18.519531 68.816406 L 17.703125 63.195312 C 20.585938 64.9375 23.957031 65.960938 27.5625 65.960938 C 31.171875 65.960938 34.542969 64.9375 37.425781 63.195312 L 36.609375 68.816406 C 36.523438 69.371094 36.902344 69.894531 37.457031 69.980469 C 38.011719 70.066406 38.53125 69.683594 38.617188 69.132812 L 39.625 62.097656 C 39.65625 61.949219 39.65625 61.800781 39.625 61.65625 C 43.175781 58.757812 45.652344 54.601562 46.40625 49.878906 L 47.664062 49.878906 C 48.21875 49.878906 48.667969 49.429688 48.667969 48.875 L 48.667969 44.855469 C 48.667969 44.300781 48.21875 43.847656 47.664062 43.847656 L 46.40625 43.847656 C 45.648438 39.109375 43.164062 34.9375 39.59375 32.039062 C 39.632812 31.90625 39.640625 31.769531 39.625 31.632812 L 38.617188 24.597656 C 38.578125 24.332031 38.433594 24.085938 38.21875 23.929688 C 38 23.769531 37.722656 23.707031 37.457031 23.75 C 37.191406 23.789062 36.945312 23.933594 36.789062 24.148438 C 36.628906 24.371094 36.566406 24.644531 36.609375 24.910156 L 37.425781 30.53125 C 34.542969 28.789062 31.171875 27.769531 27.5625 27.769531 C 23.957031 27.769531 20.585938 28.789062 17.703125 30.53125 L 18.519531 24.910156 C 18.574219 24.589844 18.472656 24.257812 18.242188 24.027344 C 18.007812 23.796875 17.679688 23.695312 17.355469 23.75 Z M 27.5625 29.78125 C 37.011719 29.78125 44.648438 37.414062 44.648438 46.863281 C 44.648438 56.3125 37.011719 63.949219 27.5625 63.949219 C 18.113281 63.949219 10.480469 56.3125 10.480469 46.863281 C 10.480469 37.414062 18.113281 29.78125 27.5625 29.78125 Z M 27.5625 31.789062 C 19.25 31.789062 12.488281 38.550781 12.488281 46.863281 C 12.488281 55.179688 19.25 61.9375 27.5625 61.9375 C 35.878906 61.9375 42.640625 55.179688 42.640625 46.863281 C 42.640625 38.550781 35.878906 31.789062 27.5625 31.789062 Z M 26.558594 33.832031 C 26.574219 34.371094 27.019531 34.804688 27.5625 34.804688 C 28.109375 34.804688 28.554688 34.371094 28.570312 33.832031 C 35 34.3125 40.113281 39.429688 40.597656 45.859375 C 40.054688 45.875 39.625 46.320312 39.625 46.863281 C 39.625 47.410156 40.054688 47.855469 40.597656 47.871094 C 40.113281 54.300781 35 59.414062 28.570312 59.898438 C 28.554688 59.355469 28.109375 58.925781 27.5625 58.925781 C 27.019531 58.925781 26.574219 59.355469 26.558594 59.898438 C 20.128906 59.414062 15.011719 54.300781 14.53125 47.871094 C 15.070312 47.855469 15.503906 47.410156 15.503906 46.863281 C 15.503906 46.320312 15.070312 45.875 14.53125 45.859375 C 15.011719 39.429688 20.128906 34.3125 26.558594 33.832031 Z M 33.972656 39.328125 C 33.746094 39.351562 33.535156 39.453125 33.375 39.609375 L 28.066406 44.917969 C 27.90625 44.875 27.738281 44.855469 27.5625 44.855469 C 26.453125 44.855469 25.554688 45.753906 25.554688 46.863281 C 25.554688 47.976562 26.453125 48.875 27.5625 48.875 C 27.738281 48.875 27.90625 48.855469 28.066406 48.8125 L 30.863281 51.605469 C 31.261719 52.007812 31.90625 52.007812 32.304688 51.605469 C 32.707031 51.207031 32.707031 50.5625 32.304688 50.160156 L 29.511719 47.367188 C 29.554688 47.207031 29.574219 47.035156 29.574219 46.863281 C 29.574219 46.691406 29.554688 46.523438 29.511719 46.363281 L 34.820312 41.054688 C 35.144531 40.75 35.230469 40.273438 35.035156 39.875 C 34.84375 39.476562 34.40625 39.257812 33.972656 39.328125 Z M 33.972656 39.328125 " fill-opacity="1" fill-rule="nonzero"/><path fill="#ffffff" d="M 57.792969 30.375 C 55.730469 30.375 54.042969 32.0625 54.042969 34.125 L 52.542969 34.125 C 52.332031 34.121094 52.15625 34.195312 52.003906 34.339844 C 51.855469 34.488281 51.78125 34.664062 51.78125 34.875 C 51.78125 35.085938 51.855469 35.261719 52.003906 35.410156 C 52.15625 35.554688 52.332031 35.628906 52.542969 35.625 L 54.042969 35.625 C 54.863281 35.625 55.542969 34.945312 55.542969 34.125 C 55.542969 32.875 56.542969 31.875 57.792969 31.875 C 59.042969 31.875 60.042969 32.875 60.042969 34.125 L 60.042969 39.507812 C 59.867188 39.570312 59.699219 39.652344 59.542969 39.757812 C 59.386719 39.863281 59.246094 39.984375 59.121094 40.125 C 58.996094 40.265625 58.890625 40.417969 58.804688 40.585938 C 58.714844 40.75 58.652344 40.925781 58.609375 41.109375 C 58.566406 41.292969 58.546875 41.476562 58.546875 41.664062 C 58.550781 41.851562 58.578125 42.035156 58.628906 42.21875 C 58.675781 42.398438 58.746094 42.570312 58.839844 42.734375 C 58.933594 42.898438 59.042969 43.046875 59.175781 43.183594 L 53.421875 54.691406 C 53.304688 54.855469 53.261719 55.039062 53.289062 55.238281 C 53.320312 55.4375 53.414062 55.597656 53.574219 55.71875 C 53.578125 55.71875 53.578125 55.722656 53.578125 55.722656 L 60.195312 62.339844 C 60.265625 62.433594 60.355469 62.503906 60.460938 62.558594 C 60.566406 62.609375 60.675781 62.632812 60.792969 62.632812 C 60.910156 62.632812 61.023438 62.609375 61.125 62.554688 C 61.230469 62.503906 61.320312 62.429688 61.390625 62.335938 L 68.007812 55.722656 C 68.167969 55.597656 68.261719 55.4375 68.292969 55.238281 C 68.324219 55.039062 68.28125 54.859375 68.164062 54.691406 L 62.414062 43.1875 C 62.542969 43.050781 62.65625 42.902344 62.75 42.738281 C 62.839844 42.574219 62.914062 42.402344 62.960938 42.21875 C 63.011719 42.039062 63.039062 41.851562 63.042969 41.664062 C 63.046875 41.476562 63.027344 41.292969 62.980469 41.109375 C 62.9375 40.925781 62.875 40.75 62.785156 40.582031 C 62.699219 40.414062 62.59375 40.261719 62.46875 40.121094 C 62.339844 39.980469 62.199219 39.859375 62.042969 39.753906 C 61.886719 39.648438 61.71875 39.566406 61.542969 39.503906 L 61.542969 34.125 C 61.542969 32.0625 59.855469 30.375 57.792969 30.375 Z M 74.292969 30.375 C 72.230469 30.375 70.542969 32.0625 70.542969 34.125 L 69.042969 34.125 C 68.832031 34.121094 68.65625 34.195312 68.503906 34.339844 C 68.355469 34.488281 68.28125 34.664062 68.28125 34.875 C 68.28125 35.085938 68.355469 35.261719 68.503906 35.410156 C 68.65625 35.554688 68.832031 35.628906 69.042969 35.625 L 70.542969 35.625 C 71.363281 35.625 72.042969 34.945312 72.042969 34.125 C 72.042969 32.875 73.042969 31.875 74.292969 31.875 C 75.542969 31.875 76.542969 32.875 76.542969 34.125 L 76.542969 39.507812 C 76.367188 39.570312 76.199219 39.652344 76.042969 39.757812 C 75.886719 39.863281 75.746094 39.984375 75.621094 40.125 C 75.496094 40.265625 75.390625 40.417969 75.304688 40.585938 C 75.214844 40.75 75.152344 40.925781 75.109375 41.109375 C 75.066406 41.292969 75.046875 41.476562 75.046875 41.664062 C 75.050781 41.851562 75.078125 42.035156 75.128906 42.21875 C 75.175781 42.398438 75.246094 42.570312 75.339844 42.734375 C 75.433594 42.898438 75.542969 43.046875 75.675781 43.183594 L 69.921875 54.691406 C 69.804688 54.855469 69.761719 55.039062 69.789062 55.238281 C 69.820312 55.4375 69.914062 55.597656 70.074219 55.71875 C 70.078125 55.71875 70.078125 55.722656 70.078125 55.722656 L 76.695312 62.339844 C 76.765625 62.433594 76.855469 62.503906 76.960938 62.558594 C 77.066406 62.609375 77.175781 62.632812 77.292969 62.632812 C 77.410156 62.632812 77.523438 62.609375 77.625 62.554688 C 77.730469 62.503906 77.820312 62.429688 77.890625 62.335938 L 84.507812 55.722656 C 84.667969 55.597656 84.761719 55.4375 84.792969 55.238281 C 84.824219 55.039062 84.78125 54.859375 84.664062 54.691406 L 78.914062 43.1875 C 79.042969 43.050781 79.15625 42.902344 79.25 42.738281 C 79.339844 42.574219 79.414062 42.402344 79.460938 42.21875 C 79.511719 42.039062 79.539062 41.851562 79.542969 41.664062 C 79.546875 41.476562 79.527344 41.292969 79.480469 41.109375 C 79.4375 40.925781 79.375 40.75 79.285156 40.582031 C 79.199219 40.414062 79.09375 40.261719 78.96875 40.121094 C 78.839844 39.980469 78.699219 39.859375 78.542969 39.753906 C 78.386719 39.648438 78.21875 39.566406 78.042969 39.503906 L 78.042969 34.125 C 78.042969 32.0625 76.355469 30.375 74.292969 30.375 Z M 60.792969 46.183594 L 62.238281 54.867188 L 60.792969 56.3125 L 59.34375 54.867188 Z M 77.292969 46.183594 L 78.738281 54.867188 L 77.292969 56.3125 L 75.84375 54.867188 Z M 59.234375 46.421875 L 57.90625 54.375 L 55.253906 54.375 Z M 62.351562 46.421875 L 66.328125 54.375 L 63.679688 54.375 Z M 75.734375 46.421875 L 74.40625 54.375 L 71.753906 54.375 Z M 78.851562 46.421875 L 82.828125 54.375 L 80.179688 54.375 Z M 55.851562 55.875 L 58.230469 55.875 L 60.042969 57.683594 L 60.042969 60.0625 Z M 63.351562 55.875 L 65.730469 55.875 L 61.542969 60.0625 L 61.542969 57.683594 Z M 72.351562 55.875 L 74.730469 55.875 L 76.542969 57.683594 L 76.542969 60.0625 Z M 79.851562 55.875 L 82.230469 55.875 L 78.042969 60.0625 L 78.042969 57.683594 Z M 79.851562 55.875 " fill-opacity="1" fill-rule="nonzero"/></svg>
