<?xml version="1.0" encoding="UTF-8" standalone="no"?>
<!DOCTYPE svg PUBLIC "-//W3C//DTD SVG 1.1//EN" "http://www.w3.org/Graphics/SVG/1.1/DTD/svg11.dtd">
<svg width="100%" height="100%" viewBox="0 0 512 512" version="1.1" xmlns="http://www.w3.org/2000/svg" xmlns:xlink="http://www.w3.org/1999/xlink" xml:space="preserve" xmlns:serif="http://www.serif.com/" style="fill-rule:evenodd;clip-rule:evenodd;stroke-linejoin:round;stroke-miterlimit:1.41421;">
    <path d="M256,168C207.4,168 168,207.4 168,256C168,304.6 207.4,344 256,344C304.6,344 344,304.6 344,256C344,207.4 304.6,168 256,168ZM256,296C233.94,296 216,278.06 216,256C216,233.94 233.94,216 256,216C278.06,216 296,233.94 296,256C296,278.06 278.06,296 256,296ZM496,232L446.34,232C435.49,145.19 366.81,76.51 280,65.66L280,16C280,7.16 272.84,0 264,0L248,0C239.16,0 232,7.16 232,16L232,65.66C145.19,76.51 76.51,145.19 65.66,232L16,232C7.16,232 0,239.16 0,248L0,264C0,272.84 7.16,280 16,280L65.66,280C76.51,366.81 145.19,435.49 232,446.34L232,496C232,504.84 239.16,512 248,512L264,512C272.84,512 280,504.84 280,496L280,446.34C366.81,435.49 435.49,366.8 446.34,280L496,280C504.84,280 512,272.84 512,264L512,248C512,239.16 504.84,232 496,232ZM256,400C176.6,400 112,335.4 112,256C112,176.6 176.6,112 256,112C335.4,112 400,176.6 400,256C400,335.4 335.4,400 256,400Z" style="fill:white;fill-rule:nonzero;"/>
</svg>
