<svg fill="#000000" xmlns="http://www.w3.org/2000/svg"  viewBox="0 0 80 80" width="80px" height="80px"><path d="M 30 7.863281 L 24.984375 9.816406 C 22.261719 10.878906 20.097656 13.710938 18.527344 17.339844 C 18.253906 17.96875 18.117188 18.742188 17.882813 19.421875 C 17.738281 18.472656 17.273438 17.625 16.597656 17.011719 C 17.449219 16.277344 18 15.203125 18 14 C 18 11.800781 16.199219 10 14 10 C 11.800781 10 10 11.800781 10 14 C 10 15.195313 10.546875 16.265625 11.390625 17 C 10.546875 17.734375 10 18.804688 10 20 L 10 70 L 18 70 L 18 63.6875 L 30 59.011719 Z M 50 7.863281 L 50 59.011719 L 62 63.6875 L 62 70 L 70 70 L 70 20 C 70 18.804688 69.453125 17.734375 68.609375 17 C 69.453125 16.265625 70 15.195313 70 14 C 70 11.800781 68.199219 10 66 10 C 63.800781 10 62 11.800781 62 14 C 62 15.203125 62.550781 16.277344 63.402344 17.011719 C 62.726563 17.625 62.261719 18.472656 62.117188 19.421875 C 61.882813 18.742188 61.746094 17.96875 61.472656 17.339844 C 59.902344 13.710938 57.738281 10.878906 55.015625 9.816406 Z M 28 10.789063 L 28 57.640625 L 17.90625 61.578125 C 17.738281 61.226563 17.386719 61 17 61 C 16.449219 61 16 61.449219 16 62 C 16 62.101563 16.015625 62.203125 16.046875 62.300781 L 16 62.316406 L 16 68 L 12 68 L 12 20 C 12 18.882813 12.882813 18 14 18 C 15.117188 18 16 18.882813 16 20 L 16 30 C 16 30.554688 16.449219 31 17 31 C 17.550781 31 18 30.554688 18 30 C 18 25.722656 18.914063 21.476563 20.363281 18.132813 C 21.8125 14.789063 23.824219 12.417969 25.710938 11.683594 Z M 52 10.789063 L 54.289063 11.683594 C 56.175781 12.417969 58.1875 14.789063 59.636719 18.132813 C 61.085938 21.476563 62 25.722656 62 30 C 62 30.554688 62.449219 31 63 31 C 63.550781 31 64 30.554688 64 30 L 64 20 C 64 18.882813 64.882813 18 66 18 C 67.117188 18 68 18.882813 68 20 L 68 68 L 64 68 L 64 62.316406 L 63.953125 62.296875 C 63.984375 62.203125 64 62.101563 64 62 C 64 61.449219 63.550781 61 63 61 C 62.613281 61 62.261719 61.226563 62.09375 61.578125 L 52 57.640625 Z M 14 12 C 15.117188 12 16 12.882813 16 14 C 16 15.117188 15.117188 16 14 16 C 12.882813 16 12 15.117188 12 14 C 12 12.882813 12.882813 12 14 12 Z M 66 12 C 67.117188 12 68 12.882813 68 14 C 68 15.117188 67.117188 16 66 16 C 64.882813 16 64 15.117188 64 14 C 64 12.882813 64.882813 12 66 12 Z M 17 33 C 16.449219 33 16 33.449219 16 34 C 16 34.550781 16.449219 35 17 35 C 17.550781 35 18 34.550781 18 34 C 18 33.449219 17.550781 33 17 33 Z M 63 33 C 62.449219 33 62 33.449219 62 34 C 62 34.550781 62.449219 35 63 35 C 63.550781 35 64 34.550781 64 34 C 64 33.449219 63.550781 33 63 33 Z M 17 37 C 16.449219 37 16 37.449219 16 38 C 16 38.550781 16.449219 39 17 39 C 17.550781 39 18 38.550781 18 38 C 18 37.449219 17.550781 37 17 37 Z M 25 37 C 24.449219 37 24 37.449219 24 38 C 24 38.550781 24.449219 39 25 39 C 25.550781 39 26 38.550781 26 38 C 26 37.449219 25.550781 37 25 37 Z M 55 37 C 54.449219 37 54 37.449219 54 38 C 54 38.550781 54.449219 39 55 39 C 55.550781 39 56 38.550781 56 38 C 56 37.449219 55.550781 37 55 37 Z M 63 37 C 62.449219 37 62 37.449219 62 38 C 62 38.550781 62.449219 39 63 39 C 63.550781 39 64 38.550781 64 38 C 64 37.449219 63.550781 37 63 37 Z M 17 41 C 16.449219 41 16 41.449219 16 42 C 16 42.550781 16.449219 43 17 43 C 17.550781 43 18 42.550781 18 42 C 18 41.449219 17.550781 41 17 41 Z M 25 41 C 24.449219 41 24 41.449219 24 42 C 24 42.550781 24.449219 43 25 43 C 25.550781 43 26 42.550781 26 42 C 26 41.449219 25.550781 41 25 41 Z M 55 41 C 54.449219 41 54 41.449219 54 42 C 54 42.550781 54.449219 43 55 43 C 55.550781 43 56 42.550781 56 42 C 56 41.449219 55.550781 41 55 41 Z M 63 41 C 62.449219 41 62 41.449219 62 42 C 62 42.550781 62.449219 43 63 43 C 63.550781 43 64 42.550781 64 42 C 64 41.449219 63.550781 41 63 41 Z M 17 45 C 16.449219 45 16 45.449219 16 46 C 16 46.550781 16.449219 47 17 47 C 17.550781 47 18 46.550781 18 46 C 18 45.449219 17.550781 45 17 45 Z M 63 45 C 62.449219 45 62 45.449219 62 46 C 62 46.550781 62.449219 47 63 47 C 63.550781 47 64 46.550781 64 46 C 64 45.449219 63.550781 45 63 45 Z M 17 49 C 16.449219 49 16 49.449219 16 50 C 16 50.550781 16.449219 51 17 51 C 17.550781 51 18 50.550781 18 50 C 18 49.449219 17.550781 49 17 49 Z M 63 49 C 62.449219 49 62 49.449219 62 50 C 62 50.550781 62.449219 51 63 51 C 63.550781 51 64 50.550781 64 50 C 64 49.449219 63.550781 49 63 49 Z M 17 53 C 16.449219 53 16 53.449219 16 54 C 16 54.550781 16.449219 55 17 55 C 17.550781 55 18 54.550781 18 54 C 18 53.449219 17.550781 53 17 53 Z M 63 53 C 62.449219 53 62 53.449219 62 54 C 62 54.550781 62.449219 55 63 55 C 63.550781 55 64 54.550781 64 54 C 64 53.449219 63.550781 53 63 53 Z M 17 57 C 16.449219 57 16 57.449219 16 58 C 16 58.550781 16.449219 59 17 59 C 17.550781 59 18 58.550781 18 58 C 18 57.449219 17.550781 57 17 57 Z M 63 57 C 62.449219 57 62 57.449219 62 58 C 62 58.550781 62.449219 59 63 59 C 63.550781 59 64 58.550781 64 58 C 64 57.449219 63.550781 57 63 57 Z"/></svg>