<svg fill="#ffffff" xmlns="http://www.w3.org/2000/svg"  viewBox="0 0 55 55" width="132px" height="132px"><path d="M 12.75 3.5 C 12.297363 3.5 11.900391 3.8032227 11.783203 4.2402344 L 9.1542969 14.048828 C 9.1425781 14.09259 9.1521607 14.135986 9.1464844 14.179688 C 9.140564 14.223755 9.1210938 14.262939 9.1210938 14.308594 L 9.1210938 21.154297 L 9.0136719 21.154297 C 8.4614258 21.154297 8.0136719 21.602051 8.0136719 22.154297 L 8.0136719 43.505859 L 6.890625 43.505859 C 6.3383789 43.505859 5.890625 43.953613 5.890625 44.505859 L 5.890625 49.5 L 4.5566406 49.5 C 4.0043945 49.5 3.5566406 49.947754 3.5566406 50.5 C 3.5566406 51.052246 4.0043945 51.5 4.5566406 51.5 L 50.443359 51.5 C 50.995605 51.5 51.443359 51.052246 51.443359 50.5 C 51.443359 49.947754 50.995605 49.5 50.443359 49.5 L 49.109375 49.5 L 49.109375 25.205078 C 49.109375 24.652832 48.661621 24.205078 48.109375 24.205078 L 47.513672 24.205078 C 47.610291 23.565735 47.675781 22.929504 47.675781 22.300781 C 47.675781 15.788696 37.955505 10.644348 35.412109 9.4101562 L 35.412109 6.3867188 C 35.412109 5.8344727 34.964355 5.3867188 34.412109 5.3867188 C 33.859863 5.3867188 33.412109 5.8344727 33.412109 6.3867188 L 33.412109 9.4101562 C 30.868713 10.644348 21.146484 15.788696 21.146484 22.300781 C 21.146484 22.929504 21.211975 23.565735 21.308594 24.205078 L 20.712891 24.205078 C 20.160645 24.205078 19.712891 24.652832 19.712891 25.205078 L 19.712891 43.505859 L 17.490234 43.505859 L 17.490234 22.154297 C 17.490234 21.602051 17.04248 21.154297 16.490234 21.154297 L 16.378906 21.154297 L 16.378906 14.308594 C 16.378906 14.263 16.359436 14.223694 16.353516 14.179688 C 16.347839 14.135925 16.35553 14.092651 16.34375 14.048828 L 13.714844 4.2402344 C 13.597656 3.8032227 13.202637 3.5 12.75 3.5 z M 12.75 8.3632812 L 14.378906 14.439453 L 14.378906 21.154297 L 11.121094 21.154297 L 11.121094 14.439453 L 12.75 8.3632812 z M 34.412109 11.144531 C 37.90332 12.794434 45.675781 17.479004 45.675781 22.300781 C 45.675781 22.926758 45.618652 23.563965 45.503906 24.205078 L 23.318359 24.205078 C 23.203613 23.563965 23.146484 22.926758 23.146484 22.300781 C 23.146484 17.48584 30.920898 12.796875 34.412109 11.144531 z M 30.429688 15.908203 C 30.176392 15.87085 29.908936 15.931152 29.6875 16.095703 C 28.037598 17.321777 25.92334 19.172363 25.220703 21.027344 C 25.024902 21.543945 25.284668 22.120605 25.800781 22.316406 C 26.319851 22.514044 26.895418 22.249363 27.089844 21.736328 C 27.498535 20.657715 28.880859 19.1875 30.880859 17.701172 C 31.32373 17.371582 31.415039 16.744141 31.085938 16.300781 C 30.921143 16.07959 30.682983 15.945557 30.429688 15.908203 z M 10.013672 23.154297 L 10.111328 23.154297 C 10.114746 23.154358 10.117676 23.15625 10.121094 23.15625 L 15.378906 23.15625 C 15.382324 23.15625 15.385254 23.154358 15.388672 23.154297 L 15.490234 23.154297 L 15.490234 43.505859 L 10.013672 43.505859 L 10.013672 23.154297 z M 21.712891 26.205078 L 47.109375 26.205078 L 47.109375 49.5 L 40.984375 49.5 L 40.984375 37.365234 C 40.984375 36.948242 40.913086 36.539062 40.767578 36.115234 C 40.596191 35.613281 40.324707 35.123047 39.935547 34.621094 C 38.243652 32.430664 34.958984 30.940918 34.820312 30.878906 C 34.55957 30.761719 34.262695 30.761719 34.001953 30.878906 C 33.863281 30.940918 30.57959 32.432129 28.888672 34.621094 C 28.498535 35.124512 28.225586 35.612305 28.054688 36.113281 C 27.908691 36.538086 27.837891 36.948242 27.837891 37.365234 L 27.837891 49.5 L 21.712891 49.5 L 21.712891 26.205078 z M 25.132812 30.287109 C 24.580566 30.287109 24.132812 30.734863 24.132812 31.287109 L 24.132812 33.238281 C 24.132812 33.790527 24.580566 34.238281 25.132812 34.238281 C 25.685059 34.238281 26.132813 33.790527 26.132812 33.238281 L 26.132812 31.287109 C 26.132812 30.734863 25.685059 30.287109 25.132812 30.287109 z M 43.689453 30.287109 C 43.137207 30.287109 42.689453 30.734863 42.689453 31.287109 L 42.689453 33.238281 C 42.689453 33.790527 43.137207 34.238281 43.689453 34.238281 C 44.241699 34.238281 44.689453 33.790527 44.689453 33.238281 L 44.689453 31.287109 C 44.689453 30.734863 44.241699 30.287109 43.689453 30.287109 z M 34.412109 32.904297 C 35.273926 33.341797 37.280762 34.457031 38.353516 35.845703 C 38.603027 36.166992 38.778809 36.475098 38.876953 36.761719 C 38.949707 36.974609 38.984375 37.172363 38.984375 37.365234 L 38.984375 49.5 L 29.837891 49.5 L 29.837891 37.365234 C 29.837891 36.807617 30.131548 36.282703 30.470703 35.845703 C 31.54248 34.458008 33.550293 33.341797 34.412109 32.904297 z M 7.890625 45.505859 L 19.712891 45.505859 L 19.712891 49.5 L 7.890625 49.5 L 7.890625 45.505859 z"/></svg>
