<svg xmlns="http://www.w3.org/2000/svg"  viewBox="0 0 50 50" width="100px" height="100px" fill="#ffffff"><path d="M 14.84375 2 C 14.40625 2.0625 14.0625 2.40625 14 2.84375 L 13 9.84375 C 12.984375 9.980469 12.992188 10.117188 13.03125 10.25 C 8.738281 13.734375 6 19.046875 6 25 C 6 30.9375 8.726563 36.234375 13 39.71875 C 12.96875 39.863281 12.96875 40.011719 13 40.15625 L 14 47.15625 C 14.085938 47.707031 14.605469 48.085938 15.15625 48 C 15.707031 47.914063 16.085938 47.394531 16 46.84375 L 15.1875 41.25 C 18.054688 42.984375 21.410156 44 25 44 C 28.589844 44 31.945313 42.984375 34.8125 41.25 L 34 46.84375 C 33.914063 47.394531 34.292969 47.914063 34.84375 48 C 35.394531 48.085938 35.914063 47.707031 36 47.15625 L 37 40.15625 C 37.03125 40.011719 37.03125 39.863281 37 39.71875 C 40.535156 36.835938 43 32.699219 43.75 28 L 45 28 C 45.550781 28 46 27.550781 46 27 L 46 23 C 46 22.449219 45.550781 22 45 22 L 43.75 22 C 42.996094 17.285156 40.523438 13.132813 36.96875 10.25 C 37.007813 10.117188 37.015625 9.980469 37 9.84375 L 36 2.84375 C 35.960938 2.578125 35.816406 2.335938 35.601563 2.179688 C 35.382813 2.019531 35.109375 1.957031 34.84375 2 C 34.578125 2.039063 34.335938 2.183594 34.179688 2.398438 C 34.019531 2.617188 33.957031 2.890625 34 3.15625 L 34.8125 8.75 C 31.945313 7.015625 28.589844 6 25 6 C 21.410156 6 18.054688 7.015625 15.1875 8.75 L 16 3.15625 C 16.054688 2.835938 15.953125 2.507813 15.722656 2.277344 C 15.492188 2.046875 15.164063 1.945313 14.84375 2 Z M 25 8 C 34.402344 8 42 15.597656 42 25 C 42 34.402344 34.402344 42 25 42 C 15.597656 42 8 34.402344 8 25 C 8 15.597656 15.597656 8 25 8 Z M 25 10 C 16.726563 10 10 16.726563 10 25 C 10 33.273438 16.726563 40 25 40 C 33.273438 40 40 33.273438 40 25 C 40 16.726563 33.273438 10 25 10 Z M 24 12.03125 C 24.015625 12.570313 24.457031 13 25 13 C 25.542969 13 25.984375 12.570313 26 12.03125 C 32.398438 12.511719 37.488281 17.601563 37.96875 24 C 37.429688 24.015625 37 24.457031 37 25 C 37 25.542969 37.429688 25.984375 37.96875 26 C 37.488281 32.398438 32.398438 37.488281 26 37.96875 C 25.984375 37.429688 25.542969 37 25 37 C 24.457031 37 24.015625 37.429688 24 37.96875 C 17.601563 37.488281 12.511719 32.398438 12.03125 26 C 12.570313 25.984375 13 25.542969 13 25 C 13 24.457031 12.570313 24.015625 12.03125 24 C 12.511719 17.601563 17.601563 12.511719 24 12.03125 Z M 31.375 17.5 C 31.152344 17.523438 30.941406 17.625 30.78125 17.78125 L 25.5 23.0625 C 25.339844 23.019531 25.171875 23 25 23 C 23.894531 23 23 23.894531 23 25 C 23 26.105469 23.894531 27 25 27 C 25.171875 27 25.339844 26.980469 25.5 26.9375 L 28.28125 29.71875 C 28.679688 30.117188 29.320313 30.117188 29.71875 29.71875 C 30.117188 29.320313 30.117188 28.679688 29.71875 28.28125 L 26.9375 25.5 C 26.980469 25.339844 27 25.171875 27 25 C 27 24.828125 26.980469 24.660156 26.9375 24.5 L 32.21875 19.21875 C 32.542969 18.917969 32.628906 18.441406 32.433594 18.046875 C 32.242188 17.648438 31.808594 17.429688 31.375 17.5 Z"/></svg>
