<svg fill="#000000" xmlns="http://www.w3.org/2000/svg"  viewBox="0 0 50 50" width="100px" height="100px"><path d="M 19 4 C 16.25 4 14 6.25 14 9 C 14 11.75 16.25 14 19 14 C 21.75 14 24 11.75 24 9 C 24 6.25 21.75 4 19 4 Z M 19 14 C 16.253906 14 14 16.253906 14 19 L 14 28.59375 L 12.09375 30.5 C 11.1875 31.40625 9.78125 32 8.59375 32 L 7.3125 32 C 3.960938 32 0.828125 34.277344 0.21875 37.59375 C 0.214844 37.605469 0.222656 37.613281 0.21875 37.625 C -0.683594 42.007813 2.699219 46 7 46 L 12.5 46 C 14.335938 46 16.113281 45.296875 17.40625 43.90625 C 17.417969 43.894531 17.425781 43.886719 17.4375 43.875 L 37.90625 23.40625 C 38.8125 22.5 40.21875 21.90625 41.40625 21.90625 L 43 21.90625 C 47.3125 21.90625 50.683594 17.917969 49.875 13.53125 L 49.875 13.46875 C 49.164063 10.273438 46.171875 8 42.8125 8 L 37.5 8 C 35.664063 8 33.886719 8.703125 32.59375 10.09375 C 32.582031 10.105469 32.574219 10.113281 32.5625 10.125 L 23.96875 18.65625 C 23.785156 16.074219 21.628906 14 19 14 Z M 19 6 C 20.667969 6 22 7.332031 22 9 C 22 10.667969 20.667969 12 19 12 C 17.332031 12 16 10.667969 16 9 C 16 7.332031 17.332031 6 19 6 Z M 37.5 10 L 42.8125 10 C 45.238281 10 47.398438 11.691406 47.90625 13.875 C 48.496094 17.085938 46.085938 19.90625 43 19.90625 L 41.40625 19.90625 C 39.59375 19.90625 37.792969 20.707031 36.5 22 L 16 42.5 L 15.96875 42.5 L 15.96875 42.53125 C 15.0625 43.519531 13.851563 44 12.5 44 L 7 44 C 3.914063 44 1.511719 41.207031 2.1875 38 L 2.1875 37.96875 C 2.59375 35.699219 4.871094 34 7.3125 34 L 8.59375 34 C 10.40625 34 12.207031 33.199219 13.5 31.90625 L 34 11.5 L 34.03125 11.5 L 34.03125 11.46875 C 34.9375 10.480469 36.148438 10 37.5 10 Z M 19 16 C 20.65625 16 22 17.34375 22 19 L 22 20.625 L 16 26.625 L 16 19 C 16 17.34375 17.34375 16 19 16 Z"/></svg>