<svg xmlns="http://www.w3.org/2000/svg" xmlns:xlink="http://www.w3.org/1999/xlink" width="125" zoomAndPan="magnify" viewBox="0 0 93.75 93.749997" height="125" preserveAspectRatio="xMidYMid meet" version="1.0"><defs><g/></defs><path fill="#ffffff" d="M 35.625 28.148438 C 31.316406 28.148438 27.75 31.519531 27.75 35.707031 L 27.75 37.746094 C 27.601562 38.058594 27.601562 38.421875 27.75 38.730469 L 27.75 54.621094 C 27.601562 54.933594 27.601562 55.296875 27.75 55.605469 L 27.75 65.589844 C 27.75 68.972656 30.074219 71.828125 33.234375 72.796875 L 29.191406 76.839844 C 28.742188 77.289062 28.742188 78.011719 29.191406 78.457031 C 29.640625 78.90625 30.359375 78.90625 30.808594 78.457031 L 36.117188 73.148438 L 57.632812 73.148438 L 62.941406 78.457031 C 63.390625 78.90625 64.109375 78.90625 64.558594 78.457031 C 65.007812 78.011719 65.007812 77.289062 64.558594 76.839844 L 60.515625 72.796875 C 63.675781 71.828125 66 68.972656 66 65.589844 L 66 55.359375 C 66.03125 55.210938 66.03125 55.054688 66 54.902344 L 66 38.484375 C 66.03125 38.335938 66.03125 38.179688 66 38.027344 L 66 35.707031 C 66 31.519531 62.429688 28.148438 58.125 28.148438 Z M 35.625 30.398438 L 58.125 30.398438 C 61.269531 30.398438 63.75 32.800781 63.75 35.707031 L 63.75 37.148438 L 47.121094 37.148438 C 47.007812 37.121094 46.886719 37.105469 46.769531 37.113281 C 46.734375 37.125 46.699219 37.136719 46.664062 37.148438 L 30 37.148438 L 30 35.707031 C 30 32.800781 32.476562 30.398438 35.625 30.398438 Z M 37.558594 32.648438 C 36.9375 32.738281 36.503906 33.3125 36.589844 33.933594 C 36.679688 34.554688 37.253906 34.988281 37.875 34.898438 L 55.875 34.898438 C 56.277344 34.90625 56.65625 34.695312 56.863281 34.34375 C 57.066406 33.992188 57.066406 33.558594 56.863281 33.207031 C 56.65625 32.855469 56.277344 32.644531 55.875 32.648438 L 37.875 32.648438 C 37.839844 32.648438 37.804688 32.648438 37.769531 32.648438 C 37.734375 32.648438 37.699219 32.648438 37.664062 32.648438 C 37.628906 32.648438 37.59375 32.648438 37.558594 32.648438 Z M 30 39.398438 L 45.75 39.398438 L 45.75 54.023438 L 30 54.023438 Z M 48 39.398438 L 63.75 39.398438 L 63.75 54.023438 L 48 54.023438 Z M 30 56.273438 L 63.75 56.273438 L 63.75 65.589844 C 63.75 68.433594 61.382812 70.792969 58.335938 70.898438 C 58.324219 70.898438 58.3125 70.898438 58.300781 70.898438 C 58.171875 70.878906 58.042969 70.878906 57.914062 70.898438 L 35.660156 70.898438 C 35.648438 70.898438 35.636719 70.898438 35.625 70.898438 C 32.476562 70.898438 30 68.5 30 65.589844 Z M 36.75 58.523438 C 34.277344 58.523438 32.25 60.550781 32.25 63.023438 C 32.25 65.5 34.277344 67.523438 36.75 67.523438 C 39.222656 67.523438 41.25 65.5 41.25 63.023438 C 41.25 60.550781 39.222656 58.523438 36.75 58.523438 Z M 57 58.523438 C 54.527344 58.523438 52.5 60.550781 52.5 63.023438 C 52.5 65.5 54.527344 67.523438 57 67.523438 C 59.472656 67.523438 61.5 65.5 61.5 63.023438 C 61.5 60.550781 59.472656 58.523438 57 58.523438 Z M 36.75 60.773438 C 38.007812 60.773438 39 61.769531 39 63.023438 C 39 64.28125 38.007812 65.273438 36.75 65.273438 C 35.492188 65.273438 34.5 64.28125 34.5 63.023438 C 34.5 61.769531 35.492188 60.773438 36.75 60.773438 Z M 57 60.773438 C 58.257812 60.773438 59.25 61.769531 59.25 63.023438 C 59.25 64.28125 58.257812 65.273438 57 65.273438 C 55.742188 65.273438 54.75 64.28125 54.75 63.023438 C 54.75 61.769531 55.742188 60.773438 57 60.773438 Z M 57 60.773438 " fill-opacity="1" fill-rule="nonzero"/><g fill="#ffffff" fill-opacity="1"><g transform="translate(26.406227, 20.075008)"><g><path d="M 10.0625 0 L 7.78125 0 L 7.703125 -2.546875 L 7.5625 -4.671875 L 7.40625 -4.671875 L 6.0625 -0.796875 L 4.09375 -0.796875 L 2.984375 -4.671875 L 2.828125 -4.671875 L 2.640625 -2.796875 L 2.515625 0 L 0.34375 0 L 1.15625 -8.40625 L 4.15625 -8.40625 L 4.40625 -7.21875 L 5.140625 -4.15625 L 5.296875 -4.15625 L 6.125 -7.125 L 6.421875 -8.40625 L 9.390625 -8.40625 Z M 10.0625 0 "/></g></g></g><g fill="#ffffff" fill-opacity="1"><g transform="translate(36.881015, 20.075008)"><g><path d="M 6.71875 -2.078125 L 6.859375 -1.890625 L 6.703125 0 L 0.78125 0 L 0.90625 -2.46875 L 0.78125 -8.40625 L 6.8125 -8.40625 L 6.953125 -8.234375 L 6.78125 -6.328125 L 4.71875 -6.40625 L 3.375 -6.40625 L 3.359375 -5.21875 L 4.640625 -5.21875 L 6 -5.265625 L 6.140625 -5.078125 L 5.984375 -3.1875 L 4.46875 -3.21875 L 3.296875 -3.21875 L 3.28125 -2.734375 L 3.3125 -2 L 4.5625 -2 Z M 6.71875 -2.078125 "/></g></g></g><g fill="#ffffff" fill-opacity="1"><g transform="translate(43.911863, 20.075008)"><g><path d="M 6.671875 -8.234375 L 6.53125 -6.328125 L 4.8125 -6.40625 L 4.65625 -6.40625 L 4.59375 -2.734375 L 4.6875 0 L 2.09375 0 L 2.21875 -2.46875 L 2.15625 -6.40625 L 1.984375 -6.40625 L 0.265625 -6.328125 L 0.109375 -6.515625 L 0.25 -8.40625 L 6.53125 -8.40625 Z M 6.671875 -8.234375 "/></g></g></g><g fill="#ffffff" fill-opacity="1"><g transform="translate(50.656793, 20.075008)"><g><path d="M 6.3125 -3.3125 C 6.9375 -2.34375 7.5625 -1.441406 8.1875 -0.609375 L 8.15625 -0.328125 C 7.269531 -0.0546875 6.394531 0.101562 5.53125 0.15625 L 5.296875 -0.046875 L 5.140625 -0.375 C 5.066406 -0.507812 4.925781 -0.800781 4.71875 -1.25 C 4.507812 -1.695312 4.328125 -2.117188 4.171875 -2.515625 L 3.296875 -2.515625 L 3.390625 0 L 0.78125 0 L 0.90625 -2.46875 L 0.78125 -8.40625 L 4.765625 -8.421875 C 5.710938 -8.421875 6.441406 -8.195312 6.953125 -7.75 C 7.460938 -7.300781 7.71875 -6.660156 7.71875 -5.828125 C 7.71875 -5.328125 7.59375 -4.859375 7.34375 -4.421875 C 7.101562 -3.992188 6.757812 -3.625 6.3125 -3.3125 Z M 4.984375 -5.5625 C 4.984375 -5.90625 4.894531 -6.160156 4.71875 -6.328125 C 4.539062 -6.503906 4.25 -6.597656 3.84375 -6.609375 L 3.375 -6.578125 L 3.328125 -4.40625 L 4.28125 -4.359375 C 4.519531 -4.472656 4.695312 -4.625 4.8125 -4.8125 C 4.925781 -5 4.984375 -5.25 4.984375 -5.5625 Z M 4.984375 -5.5625 "/></g></g></g><g fill="#ffffff" fill-opacity="1"><g transform="translate(58.857285, 20.075008)"><g><path d="M 4.4375 -8.5625 C 5.65625 -8.5625 6.597656 -8.195312 7.265625 -7.46875 C 7.929688 -6.75 8.265625 -5.734375 8.265625 -4.421875 C 8.265625 -2.960938 7.898438 -1.832031 7.171875 -1.03125 C 6.441406 -0.238281 5.40625 0.15625 4.0625 0.15625 C 2.832031 0.15625 1.882812 -0.207031 1.21875 -0.9375 C 0.550781 -1.675781 0.21875 -2.71875 0.21875 -4.0625 C 0.21875 -5.5 0.582031 -6.609375 1.3125 -7.390625 C 2.050781 -8.171875 3.09375 -8.5625 4.4375 -8.5625 Z M 4.203125 -6.484375 C 3.859375 -6.484375 3.597656 -6.425781 3.421875 -6.3125 C 3.253906 -6.195312 3.132812 -5.988281 3.0625 -5.6875 C 2.988281 -5.394531 2.953125 -4.96875 2.953125 -4.40625 C 2.953125 -3.6875 2.988281 -3.140625 3.0625 -2.765625 C 3.144531 -2.390625 3.28125 -2.128906 3.46875 -1.984375 C 3.65625 -1.835938 3.929688 -1.765625 4.296875 -1.765625 C 4.628906 -1.765625 4.878906 -1.820312 5.046875 -1.9375 C 5.222656 -2.0625 5.347656 -2.269531 5.421875 -2.5625 C 5.492188 -2.863281 5.53125 -3.296875 5.53125 -3.859375 C 5.53125 -4.566406 5.488281 -5.109375 5.40625 -5.484375 C 5.332031 -5.859375 5.203125 -6.117188 5.015625 -6.265625 C 4.835938 -6.410156 4.566406 -6.484375 4.203125 -6.484375 Z M 4.203125 -6.484375 "/></g></g></g></svg>
