<svg xmlns="http://www.w3.org/2000/svg"  viewBox="0 0 50 50" width="100px" height="100px" fill="#ffffff"><path d="M 5 6 A 1.0001 1.0001 0 0 0 4 7 L 4 10 L 1 10 A 1.0001 1.0001 0 0 0 0 11 L 0 43 A 1.0001 1.0001 0 0 0 1 44 L 24.875 44 L 49 44 A 1.0001 1.0001 0 0 0 50 43 L 50 11 A 1.0001 1.0001 0 0 0 49 10 L 46 10 L 46 7 A 1.0001 1.0001 0 0 0 45 6 C 35.03395 6 25.566148 9.7284483 25 9.953125 C 24.433852 9.7284483 14.96605 6 5 6 z M 6 8.0859375 C 15.393229 8.3410015 24.628906 11.927734 24.628906 11.927734 A 1.0001 1.0001 0 0 0 25.371094 11.927734 C 25.371094 11.927734 34.606771 8.3410015 44 8.0859375 L 44 10.832031 A 1.0001 1.0001 0 0 0 44 11.158203 L 44 38.083984 C 34.395947 38.329511 25.546744 41.736149 25 41.953125 C 24.453256 41.736149 15.604053 38.329511 6 38.083984 L 6 11.167969 A 1.0001 1.0001 0 0 0 6 10.841797 L 6 8.0859375 z M 2 12 L 4 12 L 4 39 A 1.0001 1.0001 0 0 0 5 40 C 9.928932 40 14.887712 41.005666 18.59375 42 L 2 42 L 2 12 z M 46 12 L 48 12 L 48 42 L 31.40625 42 C 35.112288 41.005666 40.071068 40 45 40 A 1.0001 1.0001 0 0 0 46 39 L 46 12 z M 24.984375 16.986328 A 1.0001 1.0001 0 0 0 24 18 L 24 21 A 1.0001 1.0001 0 1 0 26 21 L 26 18 A 1.0001 1.0001 0 0 0 24.984375 16.986328 z M 24.984375 30.986328 A 1.0001 1.0001 0 0 0 24 32 L 24 35 A 1.0001 1.0001 0 1 0 26 35 L 26 32 A 1.0001 1.0001 0 0 0 24.984375 30.986328 z"/></svg>
