<svg fill="#000000" xmlns="http://www.w3.org/2000/svg"  viewBox="0 0 50 50" width="100px" height="100px"><path d="M 9 6 C 6.800781 6 5 7.800781 5 10 C 5 12.199219 6.800781 14 9 14 C 11.199219 14 13 12.199219 13 10 C 13 7.800781 11.199219 6 9 6 Z M 41 6 C 38.800781 6 37 7.800781 37 10 C 37 12.199219 38.800781 14 41 14 C 43.199219 14 45 12.199219 45 10 C 45 7.800781 43.199219 6 41 6 Z M 9 8 C 10.117188 8 11 8.882813 11 10 C 11 11.117188 10.117188 12 9 12 C 7.882813 12 7 11.117188 7 10 C 7 8.882813 7.882813 8 9 8 Z M 41 8 C 42.117188 8 43 8.882813 43 10 C 43 11.117188 42.117188 12 41 12 C 39.882813 12 39 11.117188 39 10 C 39 8.882813 39.882813 8 41 8 Z M 9 15 C 6.800781 15 5 16.800781 5 19 L 5.007813 28.25 C 5.011719 28.277344 5.011719 28.304688 5.015625 28.332031 C 5.1875 30.394531 6.929688 32 9 32 L 13.488281 32 L 13.339844 33 L 5.929688 33 C 4.898438 33 4.0625 32.214844 4 31.183594 L 4 17 C 4.003906 16.730469 3.898438 16.46875 3.707031 16.277344 C 3.515625 16.085938 3.253906 15.980469 2.984375 15.984375 C 2.433594 15.996094 1.992188 16.449219 2 17 L 2 31.238281 C 2 31.257813 2 31.277344 2 31.296875 C 2.082031 32.644531 2.847656 33.796875 3.945313 34.445313 L 3.007813 42.890625 C 2.945313 43.4375 3.339844 43.933594 3.890625 43.992188 C 4.4375 44.054688 4.933594 43.660156 4.992188 43.109375 L 5.898438 34.996094 C 5.90625 34.996094 5.917969 35 5.929688 35 L 13.039063 35 L 12.011719 41.851563 C 11.960938 42.1875 12.082031 42.523438 12.335938 42.75 C 12.335938 42.75 12.800781 43.136719 13.558594 43.433594 C 14.316406 43.726563 15.445313 44 17 44 C 18.554688 44 19.683594 43.726563 20.441406 43.433594 C 20.785156 43.296875 20.789063 43.25 20.996094 43.121094 C 21.199219 43.25 21.199219 43.296875 21.53125 43.429688 C 22.285156 43.726563 23.417969 44 25 44 C 26.582031 44 27.714844 43.726563 28.46875 43.429688 C 28.800781 43.300781 28.796875 43.25 29 43.125 C 29.203125 43.25 29.199219 43.300781 29.53125 43.429688 C 30.285156 43.726563 31.417969 44 33 44 C 34.582031 44 35.714844 43.726563 36.46875 43.429688 C 37.222656 43.132813 37.6875 42.730469 37.6875 42.730469 C 37.925781 42.503906 38.039063 42.175781 37.988281 41.851563 L 36.960938 35 L 44.070313 35 C 44.082031 35 44.09375 34.996094 44.105469 34.996094 L 45.003906 43.109375 C 45.066406 43.660156 45.5625 44.054688 46.113281 43.996094 C 46.660156 43.933594 47.054688 43.4375 46.996094 42.890625 L 46.058594 34.445313 C 47.152344 33.796875 47.917969 32.644531 48 31.296875 C 48 31.277344 48 31.257813 48 31.238281 L 48 17 C 48.003906 16.730469 47.898438 16.46875 47.707031 16.277344 C 47.515625 16.085938 47.253906 15.980469 46.984375 15.984375 C 46.433594 15.996094 45.992188 16.449219 46 17 L 46 31.183594 C 45.9375 32.214844 45.101563 33 44.070313 33 L 36.660156 33 L 36.511719 32 L 41 32 C 43.070313 32 44.8125 30.394531 44.984375 28.332031 C 44.988281 28.304688 44.988281 28.277344 44.988281 28.25 L 45 19 C 45 16.800781 43.199219 15 41 15 C 38.816406 15 37.238281 16.808594 37.003906 18.890625 C 37 18.925781 37 18.960938 37 19 L 37 26 L 35.609375 26 L 34.988281 21.851563 C 34.914063 21.363281 34.496094 21 34 21 L 16 21 C 15.503906 21 15.085938 21.363281 15.011719 21.851563 L 14.390625 26 C 14.363281 26 14.339844 26 14.3125 26 L 13 26 L 13 19 C 13 18.960938 13 18.925781 12.996094 18.890625 C 12.761719 16.808594 11.183594 15 9 15 Z M 9 17 C 10.125 17 10.851563 17.8125 11 19.097656 L 11 27 C 11 27.550781 11.449219 28 12 28 L 14.089844 28 L 13.789063 30 L 9 30 C 7.953125 30 7.101563 29.214844 7.007813 28.171875 L 7 19 C 7 17.882813 7.882813 17 9 17 Z M 41 17 C 42.117188 17 43 17.882813 43 19 L 42.988281 28.171875 C 42.898438 29.214844 42.046875 30 41 30 L 36.210938 30 L 35.910156 28 L 38 28 C 38.550781 28 39 27.550781 39 27 L 39 19.097656 C 39.148438 17.8125 39.875 17 41 17 Z M 16.859375 23 L 33.140625 23 L 35.910156 41.480469 C 35.828125 41.519531 35.890625 41.507813 35.734375 41.570313 C 35.222656 41.773438 34.355469 42 33 42 C 31.644531 42 30.773438 41.773438 30.265625 41.570313 C 30.125 41.515625 30.082031 41.484375 30 41.445313 L 30 38 C 30.003906 37.730469 29.898438 37.46875 29.707031 37.277344 C 29.515625 37.085938 29.253906 36.980469 28.984375 36.984375 C 28.433594 36.996094 27.992188 37.449219 28 38 L 28 41.445313 C 27.917969 41.484375 27.875 41.515625 27.734375 41.570313 C 27.222656 41.773438 26.355469 42 25 42 C 23.644531 42 22.773438 41.773438 22.265625 41.570313 C 22.125 41.515625 22.082031 41.484375 22 41.445313 L 22 36 C 22.003906 35.730469 21.898438 35.46875 21.707031 35.277344 C 21.515625 35.085938 21.253906 34.980469 20.984375 34.984375 C 20.433594 34.996094 19.992188 35.449219 20 36 L 20 41.4375 C 19.914063 41.476563 19.863281 41.511719 19.714844 41.566406 C 19.191406 41.773438 18.320313 42 17 42 C 15.679688 42 14.808594 41.773438 14.285156 41.566406 C 14.121094 41.503906 14.179688 41.515625 14.089844 41.46875 Z"/></svg>