<svg xmlns="http://www.w3.org/2000/svg" xmlns:xlink="http://www.w3.org/1999/xlink" width="125" zoomAndPan="magnify" viewBox="0 0 93.75 93.749997" height="125" preserveAspectRatio="xMidYMid meet" version="1.0"><defs><g/></defs><path fill="#ffffff" d="M 42.234375 27.585938 C 41.585938 27.585938 41.054688 28.117188 41.054688 28.765625 L 41.054688 32.300781 L 34.9375 32.300781 C 31.035156 32.300781 27.726562 34.960938 26.875 38.773438 L 24.472656 49.53125 C 21.046875 50.949219 18.632812 54.320312 18.632812 58.25 C 18.632812 61.734375 20.535156 64.777344 23.347656 66.414062 L 23.347656 71.230469 C 23.347656 73.1875 24.941406 74.769531 26.886719 74.769531 L 31.605469 74.769531 C 33.558594 74.769531 35.140625 73.175781 35.140625 71.230469 L 35.140625 67.695312 L 58.734375 67.695312 L 58.734375 71.230469 C 58.734375 73.1875 60.324219 74.769531 62.269531 74.769531 L 66.988281 74.769531 C 68.941406 74.769531 70.523438 73.175781 70.523438 71.230469 L 70.523438 66.414062 C 73.355469 64.777344 75.269531 61.742188 75.269531 58.25 C 75.269531 54.320312 72.855469 50.949219 69.425781 49.53125 L 67.03125 38.761719 C 66.183594 34.960938 62.875 32.300781 58.972656 32.300781 L 52.855469 32.300781 L 52.855469 28.765625 C 52.855469 28.117188 52.324219 27.585938 51.675781 27.585938 Z M 43.414062 29.941406 L 50.496094 29.941406 L 50.496094 32.300781 L 43.414062 32.300781 Z M 34.929688 34.667969 L 58.972656 34.667969 C 61.757812 34.667969 64.125 36.570312 64.726562 39.285156 L 66.859375 48.882812 C 66.519531 48.847656 66.171875 48.828125 65.828125 48.828125 L 28.074219 48.828125 C 27.726562 48.828125 27.382812 48.847656 27.042969 48.882812 L 29.171875 39.285156 C 29.777344 36.5625 32.140625 34.667969 34.929688 34.667969 Z M 28.074219 51.1875 L 65.828125 51.1875 C 69.730469 51.1875 72.902344 54.359375 72.902344 58.261719 C 72.902344 62.15625 69.730469 65.335938 65.828125 65.335938 L 28.074219 65.335938 C 24.171875 65.335938 21 62.164062 21 58.261719 C 21 54.359375 24.171875 51.1875 28.074219 51.1875 Z M 28.074219 53.535156 C 25.46875 53.535156 23.359375 55.65625 23.359375 58.25 C 23.359375 60.855469 25.480469 62.96875 28.074219 62.96875 C 30.671875 62.96875 32.792969 60.847656 32.792969 58.25 C 32.792969 55.65625 30.679688 53.535156 28.074219 53.535156 Z M 65.828125 53.535156 C 63.222656 53.535156 61.109375 55.65625 61.109375 58.25 C 61.109375 60.855469 63.230469 62.96875 65.828125 62.96875 C 68.429688 62.96875 70.542969 60.847656 70.542969 58.25 C 70.542969 55.65625 68.429688 53.535156 65.828125 53.535156 Z M 39.867188 54.714844 C 39.21875 54.714844 38.6875 55.246094 38.6875 55.894531 C 38.6875 56.542969 39.21875 57.070312 39.867188 57.070312 L 54.027344 57.070312 C 54.675781 57.070312 55.203125 56.542969 55.203125 55.894531 C 55.203125 55.246094 54.683594 54.714844 54.027344 54.714844 Z M 28.074219 55.902344 C 29.371094 55.902344 30.433594 56.960938 30.433594 58.261719 C 30.433594 59.558594 29.371094 60.617188 28.074219 60.617188 C 26.777344 60.617188 25.714844 59.558594 25.714844 58.261719 C 25.714844 56.960938 26.777344 55.902344 28.074219 55.902344 Z M 65.828125 55.902344 C 67.125 55.902344 68.183594 56.960938 68.183594 58.261719 C 68.183594 59.558594 67.125 60.617188 65.828125 60.617188 C 64.527344 60.617188 63.46875 59.558594 63.46875 58.261719 C 63.46875 56.960938 64.527344 55.902344 65.828125 55.902344 Z M 39.867188 59.429688 C 39.21875 59.429688 38.6875 59.960938 38.6875 60.609375 C 38.6875 61.257812 39.21875 61.789062 39.867188 61.789062 L 54.027344 61.789062 C 54.675781 61.789062 55.203125 61.257812 55.203125 60.609375 C 55.203125 59.960938 54.683594 59.429688 54.027344 59.429688 Z M 25.714844 67.382812 C 26.476562 67.574219 27.261719 67.695312 28.074219 67.695312 L 32.792969 67.695312 L 32.792969 71.230469 C 32.792969 71.878906 32.261719 72.410156 31.613281 72.410156 L 26.894531 72.410156 C 26.246094 72.410156 25.714844 71.878906 25.714844 71.230469 Z M 68.183594 67.382812 L 68.183594 71.230469 C 68.183594 71.878906 67.652344 72.410156 67.003906 72.410156 L 62.289062 72.410156 C 61.640625 72.410156 61.109375 71.878906 61.109375 71.230469 L 61.109375 67.695312 L 65.828125 67.695312 C 66.640625 67.695312 67.425781 67.574219 68.183594 67.382812 Z M 68.183594 67.382812 " fill-opacity="1" fill-rule="nonzero"/><g fill="#ffffff" fill-opacity="1"><g transform="translate(33.01951, 20.075008)"><g><path d="M 6.671875 -8.234375 L 6.53125 -6.328125 L 4.8125 -6.40625 L 4.65625 -6.40625 L 4.59375 -2.734375 L 4.6875 0 L 2.09375 0 L 2.21875 -2.46875 L 2.15625 -6.40625 L 1.984375 -6.40625 L 0.265625 -6.328125 L 0.109375 -6.515625 L 0.25 -8.40625 L 6.53125 -8.40625 Z M 6.671875 -8.234375 "/></g></g></g><g fill="#ffffff" fill-opacity="1"><g transform="translate(39.76444, 20.075008)"><g><path d="M 8.015625 0 L 5.375 0 L 5.140625 -1.390625 L 5.140625 -1.4375 L 3.859375 -1.453125 L 2.796875 -1.40625 L 2.578125 0 L 0.03125 0 L 2.578125 -8.40625 L 5.71875 -8.40625 Z M 4.75 -3.328125 L 4.171875 -6.078125 L 4.015625 -6.078125 L 3.28125 -3.328125 L 4.015625 -3.3125 Z M 4.75 -3.328125 "/></g></g></g><g fill="#ffffff" fill-opacity="1"><g transform="translate(47.912941, 20.075008)"><g><path d="M 5.953125 -4.453125 L 8.484375 0 L 5.375 0 L 4.9375 -1.03125 L 4.1875 -2.390625 L 3.21875 -0.890625 L 2.8125 0 L 0.171875 0 L 2.671875 -4.046875 L 0.09375 -8.40625 L 3.21875 -8.40625 L 3.671875 -7.359375 L 4.40625 -6.03125 L 5.25 -7.5 L 5.640625 -8.40625 L 8.359375 -8.40625 Z M 5.953125 -4.453125 "/></g></g></g><g fill="#ffffff" fill-opacity="1"><g transform="translate(56.477321, 20.075008)"><g><path d="M 3.28125 -2.734375 L 3.390625 0 L 0.78125 0 L 0.90625 -2.46875 L 0.78125 -8.40625 L 3.4375 -8.40625 Z M 3.28125 -2.734375 "/></g></g></g></svg>
