<svg fill="#000000" xmlns="http://www.w3.org/2000/svg"  viewBox="0 0 50 50" width="100px" height="100px"><path d="M 9 3.0253906 A 1.0001 1.0001 0 0 0 8 4.0253906 L 8 46 A 1.0001 1.0001 0 0 0 9 47 L 17 47 A 1.0001 1.0001 0 0 0 18 46 L 18 33 L 26.125 33 C 35.323932 33 42 26.685224 42 17.875 C 42 13.409856 40.417976 9.6478109 37.652344 7.046875 C 34.886711 4.4459391 30.981405 3.0253906 26.455078 3.0253906 L 9 3.0253906 z M 10 5.0253906 L 26.455078 5.0253906 C 30.565751 5.0253906 33.933633 6.2960921 36.28125 8.5039062 C 38.628867 10.71172 40 13.875144 40 17.875 C 40 25.704776 34.440068 31 26.125 31 L 17 31 A 1.0001 1.0001 0 0 0 16 32 L 16 45 L 10 45 L 10 5.0253906 z M 17 9 A 1.0001 1.0001 0 0 0 16 10 L 16 26 A 1.0001 1.0001 0 0 0 17 27 L 24.458984 27 C 27.326127 27 29.735465 26.233906 31.425781 24.675781 C 33.116098 23.117656 34 20.813686 34 18.058594 C 34 15.241387 33.14752 12.909996 31.46875 11.333984 C 29.78998 9.7579732 27.381237 9 24.488281 9 L 17 9 z M 18 11 L 24.488281 11 C 27.036325 11 28.882629 11.65048 30.099609 12.792969 C 31.31659 13.935457 32 15.631801 32 18.058594 C 32 20.400502 31.304996 22.066953 30.070312 23.205078 C 28.835629 24.343203 26.973842 25 24.458984 25 L 18 25 L 18 11 z"/></svg>