<svg fill="#ffffff" xmlns="http://www.w3.org/2000/svg"  viewBox="0 0 50 50" width="100px" height="100px"><path d="M 25 2 C 21.699219 2 19 4.699219 19 8 C 19 11.300781 21.699219 14 25 14 C 28.300781 14 31 11.300781 31 8 C 31 4.699219 28.300781 2 25 2 Z M 25 4 C 27.222656 4 29 5.777344 29 8 C 29 10.222656 27.222656 12 25 12 C 22.777344 12 21 10.222656 21 8 C 21 5.777344 22.777344 4 25 4 Z M 24.8125 15 C 20.335938 15.015625 16.417969 18 15.21875 22.3125 L 13.21875 29.53125 C 12.726563 31.304688 13.851563 33.132813 15.65625 33.5 L 16.03125 33.59375 L 15.4375 35.71875 C 15.347656 36.023438 15.410156 36.351563 15.597656 36.601563 C 15.789063 36.855469 16.089844 37.003906 16.40625 37 L 20 37 L 20 45 C 20 46.644531 21.355469 48 23 48 C 23.765625 48 24.46875 47.699219 25 47.21875 C 25.53125 47.699219 26.234375 48 27 48 C 28.644531 48 30 46.644531 30 45 L 30 37 L 33.59375 37 C 33.910156 37.003906 34.210938 36.855469 34.402344 36.601563 C 34.589844 36.351563 34.652344 36.023438 34.5625 35.71875 L 33.96875 33.59375 L 34.34375 33.5 C 36.148438 33.132813 37.273438 31.304688 36.78125 29.53125 L 34.78125 22.3125 C 33.578125 17.988281 29.644531 15 25.15625 15 L 24.90625 15 C 24.875 15 24.84375 15 24.8125 15 Z M 24.84375 17 C 24.886719 17.003906 24.925781 17.003906 24.96875 17 L 25.09375 17 C 25.113281 17 25.136719 17 25.15625 17 C 28.753906 17 31.910156 19.375 32.875 22.84375 L 34.875 30.0625 C 35.066406 30.746094 34.632813 31.421875 33.9375 31.5625 L 33.4375 31.65625 L 30.96875 22.71875 C 30.832031 22.214844 30.328125 21.898438 29.8125 22 C 29.53125 22.050781 29.28125 22.21875 29.132813 22.464844 C 28.984375 22.710938 28.945313 23.007813 29.03125 23.28125 L 32.3125 35 L 25.0625 35 C 25.042969 35 25.019531 35 25 35 L 17.6875 35 L 20.96875 23.28125 C 21.066406 22.953125 20.992188 22.601563 20.773438 22.339844 C 20.550781 22.082031 20.210938 21.953125 19.875 22 C 19.472656 22.046875 19.140625 22.332031 19.03125 22.71875 L 16.5625 31.65625 L 16.0625 31.5625 C 15.367188 31.421875 14.933594 30.746094 15.125 30.0625 L 17.125 22.84375 C 18.089844 19.375 21.246094 17 24.84375 17 Z M 22 37 L 24 37 L 24 45 C 24 45.566406 23.566406 46 23 46 C 22.433594 46 22 45.566406 22 45 Z M 26 37 L 28 37 L 28 45 C 28 45.566406 27.566406 46 27 46 C 26.433594 46 26 45.566406 26 45 Z"/></svg>
