<svg fill="#000000" xmlns="http://www.w3.org/2000/svg"  viewBox="0 0 50 50" width="100px" height="100px"><path d="M 18 6 C 15.250421 6 13 8.2504209 13 11 C 13 13.749579 15.250421 16 18 16 C 20.749579 16 23 13.749579 23 11 C 23 8.2504209 20.749579 6 18 6 z M 18 16 C 15.250484 16 13 18.250484 13 21 L 13 27 L 11 27 C 6.0414839 27 2 31.041484 2 36 L 2 37 L 2.203125 37 C 2.7247386 41.467568 6.3958921 45 11 45 L 39 45 C 43.604108 45 47.275261 41.467568 47.796875 37 L 48 37 L 48 36 C 48 31.041484 43.958516 27 39 27 L 23 27 L 23 21 C 23 18.250484 20.749516 16 18 16 z M 18 8 C 19.668699 8 21 9.3313011 21 11 C 21 12.668699 19.668699 14 18 14 C 16.331301 14 15 12.668699 15 11 C 15 9.3313011 16.331301 8 18 8 z M 18 18 C 19.668484 18 21 19.331516 21 21 L 21 27 L 15 27 L 15 21 C 15 19.331516 16.331516 18 18 18 z M 11 29 L 39 29 C 42.877484 29 46 32.122516 46 36 C 46 39.877484 42.877484 43 39 43 L 11 43 C 7.1225161 43 4 39.877484 4 36 C 4 32.122516 7.1225161 29 11 29 z"/></svg>