<?xml version="1.0"?><svg fill="#000000" xmlns="http://www.w3.org/2000/svg"  viewBox="0 0 64 64" width="128px" height="128px">    <path d="M 35 3 C 34.612 3 34.25875 3.2251719 34.09375 3.5761719 C 33.92875 3.9271719 33.982469 4.342625 34.230469 4.640625 L 39.230469 10.640625 C 39.421469 10.868625 39.703 11 40 11 C 40.297 11 40.577578 10.868625 40.767578 10.640625 L 45.767578 4.640625 C 46.015578 4.343625 46.069297 3.9281719 45.904297 3.5761719 C 45.740297 3.2251719 45.388 3 45 3 L 35 3 z M 24 3.0175781 C 23.711 3.0175781 23.422922 3.131375 23.232422 3.359375 L 18.232422 9.359375 C 17.984422 9.656375 17.930703 10.071828 18.095703 10.423828 C 18.259703 10.774828 18.612 11 19 11 L 29 11 C 29.388 11 29.74125 10.774828 29.90625 10.423828 C 30.07125 10.072828 30.017531 9.657375 29.769531 9.359375 L 24.769531 3.359375 C 24.579031 3.131375 24.289 3.0175781 24 3.0175781 z M 37.134766 5 L 42.865234 5 L 40 8.4375 L 37.134766 5 z M 24 5.5625 L 26.865234 9 L 21.134766 9 L 24 5.5625 z M 13 13 C 10.794 13 9 14.794 9 17 L 9 55 C 9 55.553 9.447 56 10 56 L 54 56 C 54.553 56 55 55.553 55 55 L 55 17 C 55 14.794 53.206 13 51 13 L 13 13 z M 13 15 L 51 15 C 52.103 15 53 15.897 53 17 L 53 54 L 11 54 L 11 17 C 11 15.897 11.897 15 13 15 z M 22.5 17 C 20.019 17 18 19.019 18 21.5 C 18 23.981 20.019 26 22.5 26 C 24.981 26 27 23.981 27 21.5 C 27 19.019 24.981 17 22.5 17 z M 41.5 17 C 39.019 17 37 19.019 37 21.5 C 37 23.981 39.019 26 41.5 26 C 43.981 26 46 23.981 46 21.5 C 46 19.019 43.981 17 41.5 17 z M 22.5 19 C 23.879 19 25 20.122 25 21.5 C 25 22.878 23.879 24 22.5 24 C 21.121 24 20 22.878 20 21.5 C 20 20.122 21.121 19 22.5 19 z M 41.5 19 C 42.879 19 44 20.122 44 21.5 C 44 22.878 42.879 24 41.5 24 C 40.121 24 39 22.878 39 21.5 C 39 20.122 40.121 19 41.5 19 z M 22.5 27 C 18.364 27 15 30.364 15 34.5 L 15 38.5 C 15 39.846 16.068344 40.946047 17.402344 40.998047 L 17.015625 48.853516 C 16.935625 50.505516 18.213234 51.914094 19.865234 51.996094 C 19.914234 51.998094 19.964672 52 20.013672 52 C 21.040672 52 21.958 51.477781 22.5 50.675781 C 23.07 51.516781 24.069719 52.046094 25.136719 51.996094 C 26.788719 51.914094 28.066328 50.504516 27.986328 48.853516 L 27.599609 40.998047 C 28.931609 40.945047 30 39.846 30 38.5 L 30 34.5 C 30 30.364 26.636 27 22.5 27 z M 41.5 27 C 37.364 27 34 30.364 34 34.5 L 34 38.5 C 34 39.846 35.068344 40.946047 36.402344 40.998047 L 36.015625 48.853516 C 35.935625 50.505516 37.213234 51.914094 38.865234 51.996094 C 38.914234 51.998094 38.964672 52 39.013672 52 C 40.040672 52 40.958 51.477781 41.5 50.675781 C 42.07 51.516781 43.060719 52.046094 44.136719 51.996094 C 45.788719 51.914094 47.066328 50.504516 46.986328 48.853516 L 46.599609 40.998047 C 47.931609 40.945047 49 39.846 49 38.5 L 49 34.5 C 49 30.364 45.636 27 41.5 27 z M 22.5 29 C 25.532 29 28 31.467 28 34.5 L 28 38.5 C 28 38.775 27.775 39 27.5 39 C 27.356 39 27.245687 38.932953 27.179688 38.876953 C 26.874687 38.617953 26.444844 38.566234 26.089844 38.740234 C 25.730844 38.916234 25.51125 39.287547 25.53125 39.685547 L 25.986328 48.951172 C 26.014328 49.502172 25.588109 49.973 25.037109 50 C 24.479109 50.032 24.014281 49.600781 23.988281 49.050781 L 23.542969 39.949219 C 23.516969 39.416219 22.990031 38.998047 22.457031 38.998047 C 21.924031 38.998047 21.483031 39.416219 21.457031 39.949219 L 21.011719 49.050781 C 20.985719 49.601781 20.494844 50.029 19.964844 50 C 19.413844 49.973 18.986672 49.502172 19.013672 48.951172 L 19.46875 39.685547 C 19.48775 39.287547 19.268156 38.914281 18.910156 38.738281 C 18.771156 38.668281 18.620703 38.636719 18.470703 38.636719 C 18.236703 38.636719 18.005312 38.718 17.820312 38.875 C 17.754313 38.933 17.645 39 17.5 39 C 17.225 39 17 38.775 17 38.5 L 17 34.5 C 17 31.467 19.468 29 22.5 29 z M 41.5 29 C 44.532 29 47 31.467 47 34.5 L 47 38.5 C 47 38.775 46.775 39 46.5 39 C 46.356 39 46.245687 38.932953 46.179688 38.876953 C 45.873688 38.617953 45.444844 38.566234 45.089844 38.740234 C 44.730844 38.916234 44.51125 39.287547 44.53125 39.685547 L 44.986328 48.951172 C 45.014328 49.502172 44.588109 49.973 44.037109 50 C 43.489109 50.032 43.015281 49.600781 42.988281 49.050781 L 42.542969 39.949219 C 42.516969 39.416219 41.990031 38.998047 41.457031 38.998047 C 40.924031 38.998047 40.483031 39.416219 40.457031 39.949219 L 40.011719 49.050781 C 39.985719 49.601781 39.505844 50.029 38.964844 50 C 38.413844 49.973 37.986672 49.502172 38.013672 48.951172 L 38.46875 39.685547 C 38.48775 39.287547 38.268156 38.914281 37.910156 38.738281 C 37.771156 38.668281 37.620703 38.636719 37.470703 38.636719 C 37.236703 38.636719 37.005313 38.718 36.820312 38.875 C 36.754312 38.933 36.645 39 36.5 39 C 36.225 39 36 38.775 36 38.5 L 36 34.5 C 36 31.467 38.468 29 41.5 29 z M 12 58 C 11.448 58 11 58.448 11 59 L 11 61 C 11 61.552 11.448 62 12 62 C 12.552 62 13 61.552 13 61 L 13 59 C 13 58.448 12.552 58 12 58 z M 17 58 C 16.448 58 16 58.448 16 59 L 16 61 C 16 61.552 16.448 62 17 62 C 17.552 62 18 61.552 18 61 L 18 59 C 18 58.448 17.552 58 17 58 z M 22 58 C 21.448 58 21 58.448 21 59 L 21 61 C 21 61.552 21.448 62 22 62 C 22.552 62 23 61.552 23 61 L 23 59 C 23 58.448 22.552 58 22 58 z M 27 58 C 26.448 58 26 58.448 26 59 L 26 61 C 26 61.552 26.448 62 27 62 C 27.552 62 28 61.552 28 61 L 28 59 C 28 58.448 27.552 58 27 58 z M 32 58 C 31.448 58 31 58.448 31 59 L 31 61 C 31 61.552 31.448 62 32 62 C 32.552 62 33 61.552 33 61 L 33 59 C 33 58.448 32.552 58 32 58 z M 37 58 C 36.448 58 36 58.448 36 59 L 36 61 C 36 61.552 36.448 62 37 62 C 37.552 62 38 61.552 38 61 L 38 59 C 38 58.448 37.552 58 37 58 z M 42 58 C 41.448 58 41 58.448 41 59 L 41 61 C 41 61.552 41.448 62 42 62 C 42.552 62 43 61.552 43 61 L 43 59 C 43 58.448 42.552 58 42 58 z M 47 58 C 46.448 58 46 58.448 46 59 L 46 61 C 46 61.552 46.448 62 47 62 C 47.552 62 48 61.552 48 61 L 48 59 C 48 58.448 47.552 58 47 58 z M 52 58 C 51.448 58 51 58.448 51 59 L 51 61 C 51 61.552 51.448 62 52 62 C 52.552 62 53 61.552 53 61 L 53 59 C 53 58.448 52.552 58 52 58 z"/></svg>