<svg fill="#ffffff" xmlns="http://www.w3.org/2000/svg"  viewBox="0 0 50 50" width="100px" height="100px"><path d="M 25 2 C 22.25 2 20 4.25 20 7 C 20 9.75 22.25 12 25 12 C 27.75 12 30 9.75 30 7 C 30 4.25 27.75 2 25 2 Z M 25 4 C 26.667969 4 28 5.332031 28 7 C 28 8.667969 26.667969 10 25 10 C 23.332031 10 22 8.667969 22 7 C 22 5.332031 23.332031 4 25 4 Z M 25 13 C 19.488281 13 15 17.488281 15 23 L 15 32.675781 L 18.519531 34.082031 L 19.25 48 L 30.75 48 L 31.480469 34.082031 L 35 32.675781 L 35 23 C 35 17.488281 30.511719 13 25 13 Z M 25 15 C 29.429688 15 33 18.570313 33 23 L 33 31.324219 L 29.550781 32.703125 L 28.851563 46 L 21.148438 46 L 20.449219 32.703125 L 17 31.324219 L 17 23 C 17 18.570313 20.570313 15 25 15 Z"/></svg>
